Interstate-Thin.ufo
<glyph name="exclam" format="1">
  <advance width="229"/>
  <unicode hex="0021"/>
  <outline>
    <contour>
      <point x="125" y="371" type="line"/>
      <point x="121" y="144" type="line"/>
      <point x="108" y="144" type="line"/>
      <point x="104" y="371" type="line"/>
      <point x="104" y="700" type="line"/>
      <point x="125" y="700" type="line"/>
    </contour>
    <contour>
      <point x="137" y="20" type="curve" smooth="yes"/>
      <point x="137" y="7"/>
      <point x="126" y="-3"/>
      <point x="114" y="-3" type="curve" smooth="yes"/>
      <point x="101" y="-3"/>
      <point x="91" y="7"/>
      <point x="91" y="20" type="curve" smooth="yes"/>
      <point x="91" y="33"/>
      <point x="101" y="44"/>
      <point x="114" y="44" type="curve" smooth="yes"/>
      <point x="126" y="44"/>
      <point x="137" y="33"/>
    </contour>
  </outline>
</glyph>
<glyph name="quotedbl" format="1">
  <advance width="426"/>
  <unicode hex="0022"/>
  <outline>
    <contour>
      <point x="324" y="700" type="line"/>
      <point x="320" y="469" type="line"/>
      <point x="302" y="469" type="line"/>
      <point x="298" y="700" type="line"/>
    </contour>
    <contour>
      <point x="128" y="700" type="line"/>
      <point x="124" y="469" type="line"/>
      <point x="106" y="469" type="line"/>
      <point x="102" y="700" type="line"/>
    </contour>
  </outline>
</glyph>
<glyph name="numbersign" format="1">
  <advance width="648"/>
  <unicode hex="0023"/>
  <outline>
    <contour>
      <point x="590" y="208" type="line"/>
      <point x="459" y="208" type="line"/>
      <point x="459" y="0" type="line"/>
      <point x="438" y="0" type="line"/>
      <point x="438" y="208" type="line"/>
      <point x="210" y="208" type="line"/>
      <point x="210" y="0" type="line"/>
      <point x="189" y="0" type="line"/>
      <point x="189" y="208" type="line"/>
      <point x="57" y="208" type="line"/>
      <point x="57" y="228" type="line"/>
      <point x="189" y="228" type="line"/>
      <point x="189" y="471" type="line"/>
      <point x="57" y="471" type="line"/>
      <point x="57" y="491" type="line"/>
      <point x="189" y="491" type="line"/>
      <point x="189" y="700" type="line"/>
      <point x="210" y="700" type="line"/>
      <point x="210" y="491" type="line"/>
      <point x="438" y="491" type="line"/>
      <point x="438" y="700" type="line"/>
      <point x="459" y="700" type="line"/>
      <point x="459" y="491" type="line"/>
      <point x="590" y="491" type="line"/>
      <point x="590" y="471" type="line"/>
      <point x="459" y="471" type="line"/>
      <point x="459" y="228" type="line"/>
      <point x="590" y="228" type="line"/>
    </contour>
    <contour>
      <point x="438" y="228" type="line"/>
      <point x="438" y="471" type="line"/>
      <point x="210" y="471" type="line"/>
      <point x="210" y="228" type="line"/>
    </contour>
  </outline>
</glyph>
<glyph name="dollar" format="1">
  <advance width="558"/>
  <unicode hex="0024"/>
  <outline>
    <contour>
      <point x="484" y="171" type="curve" smooth="yes"/>
      <point x="484" y="53"/>
      <point x="392" y="-6"/>
      <point x="285" y="-8" type="curve"/>
      <point x="285" y="-100" type="line"/>
      <point x="264" y="-100" type="line"/>
      <point x="264" y="-8" type="line"/>
      <point x="182" y="-5"/>
      <point x="116" y="21"/>
      <point x="60" y="65" type="curve"/>
      <point x="73" y="82" type="line"/>
      <point x="132" y="37"/>
      <point x="195" y="12"/>
      <point x="277" y="12" type="curve" smooth="yes"/>
      <point x="375" y="12"/>
      <point x="462" y="62"/>
      <point x="462" y="170" type="curve" smooth="yes"/>
      <point x="462" y="258"/>
      <point x="415" y="299"/>
      <point x="267" y="354" type="curve" smooth="yes"/>
      <point x="121" y="408"/>
      <point x="74" y="447"/>
      <point x="74" y="542" type="curve" smooth="yes"/>
      <point x="74" y="630"/>
      <point x="139" y="705"/>
      <point x="264" y="708" type="curve"/>
      <point x="264" y="800" type="line"/>
      <point x="285" y="800" type="line"/>
      <point x="285" y="708" type="line"/>
      <point x="372" y="706"/>
      <point x="424" y="681"/>
      <point x="472" y="648" type="curve"/>
      <point x="461" y="631" type="line"/>
      <point x="411" y="665"/>
      <point x="359" y="688"/>
      <point x="273" y="688" type="curve" smooth="yes"/>
      <point x="152" y="688"/>
      <point x="96" y="619"/>
      <point x="96" y="543" type="curve" smooth="yes"/>
      <point x="96" y="463"/>
      <point x="132" y="428"/>
      <point x="278" y="373" type="curve" smooth="yes"/>
      <point x="435" y="314"/>
      <point x="484" y="270"/>
    </contour>
  </outline>
</glyph>
<glyph name="percent" format="1">
  <advance width="866"/>
  <unicode hex="0025"/>
  <outline>
    <contour>
      <point x="356" y="508" type="curve" smooth="yes"/>
      <point x="356" y="382"/>
      <point x="300" y="307"/>
      <point x="209" y="307" type="curve" smooth="yes"/>
      <point x="118" y="307"/>
      <point x="62" y="381"/>
      <point x="62" y="508" type="curve" smooth="yes"/>
      <point x="62" y="636"/>
      <point x="118" y="711"/>
      <point x="209" y="711" type="curve" smooth="yes"/>
      <point x="302" y="711"/>
      <point x="356" y="636"/>
    </contour>
    <contour>
      <point x="661" y="700" type="line"/>
      <point x="226" y="0" type="line"/>
      <point x="205" y="0" type="line"/>
      <point x="640" y="700" type="line"/>
    </contour>
    <contour>
      <point x="804" y="191" type="curve" smooth="yes"/>
      <point x="804" y="64"/>
      <point x="748" y="-11"/>
      <point x="657" y="-11" type="curve" smooth="yes"/>
      <point x="565" y="-11"/>
      <point x="510" y="63"/>
      <point x="510" y="191" type="curve" smooth="yes"/>
      <point x="510" y="318"/>
      <point x="565" y="393"/>
      <point x="657" y="393" type="curve" smooth="yes"/>
      <point x="749" y="393"/>
      <point x="804" y="318"/>
    </contour>
    <contour>
      <point x="336" y="508" type="curve" smooth="yes"/>
      <point x="336" y="626"/>
      <point x="289" y="693"/>
      <point x="209" y="693" type="curve" smooth="yes"/>
      <point x="129" y="693"/>
      <point x="82" y="626"/>
      <point x="82" y="508" type="curve" smooth="yes"/>
      <point x="82" y="392"/>
      <point x="129" y="325"/>
      <point x="209" y="325" type="curve" smooth="yes"/>
      <point x="289" y="325"/>
      <point x="336" y="394"/>
    </contour>
    <contour>
      <point x="784" y="191" type="curve" smooth="yes"/>
      <point x="784" y="308"/>
      <point x="737" y="375"/>
      <point x="657" y="375" type="curve" smooth="yes"/>
      <point x="577" y="375"/>
      <point x="530" y="308"/>
      <point x="530" y="191" type="curve" smooth="yes"/>
      <point x="530" y="74"/>
      <point x="577" y="7"/>
      <point x="657" y="7" type="curve" smooth="yes"/>
      <point x="737" y="7"/>
      <point x="784" y="76"/>
    </contour>
  </outline>
</glyph>
<glyph name="ampersand" format="1">
  <advance width="617"/>
  <unicode hex="0026"/>
  <outline>
    <contour>
      <point x="459" y="135" type="line"/>
      <point x="483" y="173"/>
      <point x="510" y="237"/>
      <point x="526" y="298" type="curve"/>
      <point x="545" y="292" type="line"/>
      <point x="526" y="223"/>
      <point x="504" y="166"/>
      <point x="472" y="118" type="curve"/>
      <point x="564" y="0" type="line"/>
      <point x="537" y="0" type="line"/>
      <point x="459" y="99" type="line"/>
      <point x="408" y="31"/>
      <point x="338" y="-11"/>
      <point x="246" y="-11" type="curve" smooth="yes"/>
      <point x="126" y="-11"/>
      <point x="57" y="59"/>
      <point x="57" y="169" type="curve" smooth="yes"/>
      <point x="57" y="272"/>
      <point x="122" y="345"/>
      <point x="226" y="397" type="curve"/>
      <point x="204" y="426" type="line" smooth="yes"/>
      <point x="161" y="483"/>
      <point x="133" y="522"/>
      <point x="133" y="580" type="curve" smooth="yes"/>
      <point x="133" y="661"/>
      <point x="199" y="711"/>
      <point x="284" y="711" type="curve" smooth="yes"/>
      <point x="358" y="711"/>
      <point x="411" y="690"/>
      <point x="462" y="652" type="curve"/>
      <point x="451" y="635" type="line"/>
      <point x="402" y="673"/>
      <point x="351" y="691"/>
      <point x="283" y="691" type="curve" smooth="yes"/>
      <point x="212" y="691"/>
      <point x="155" y="650"/>
      <point x="155" y="581" type="curve" smooth="yes"/>
      <point x="155" y="527"/>
      <point x="181" y="490"/>
      <point x="221" y="439" type="curve" smooth="yes"/>
    </contour>
    <contour>
      <point x="446" y="116" type="curve"/>
      <point x="238" y="382" type="line"/>
      <point x="137" y="333"/>
      <point x="79" y="261"/>
      <point x="79" y="169" type="curve" smooth="yes"/>
      <point x="79" y="68"/>
      <point x="144" y="9"/>
      <point x="247" y="9" type="curve" smooth="yes"/>
      <point x="340" y="9"/>
      <point x="403" y="57"/>
    </contour>
  </outline>
</glyph>
<glyph name="quotesingle" format="1">
  <advance width="229"/>
  <unicode hex="0027"/>
  <outline>
    <contour>
      <point x="128" y="700" type="line"/>
      <point x="123" y="469" type="line"/>
      <point x="106" y="469" type="line"/>
      <point x="101" y="700" type="line"/>
    </contour>
  </outline>
</glyph>
<glyph name="parenleft" format="1">
  <advance width="350"/>
  <unicode hex="0028"/>
  <outline>
    <contour>
      <point x="265" y="-102" type="curve"/>
      <point x="254" y="-111" type="line"/>
      <point x="169" y="-19"/>
      <point x="82" y="118"/>
      <point x="82" y="300" type="curve" smooth="yes"/>
      <point x="82" y="496"/>
      <point x="158" y="621"/>
      <point x="255" y="717" type="curve"/>
      <point x="264" y="708" type="line"/>
      <point x="171" y="610"/>
      <point x="104" y="488"/>
      <point x="104" y="301" type="curve" smooth="yes"/>
      <point x="104" y="124"/>
      <point x="181" y="-8"/>
    </contour>
  </outline>
</glyph>
<glyph name="parenright" format="1">
  <advance width="350"/>
  <unicode hex="0029"/>
  <outline>
    <contour>
      <point x="268" y="306" type="curve" smooth="yes"/>
      <point x="268" y="110"/>
      <point x="191" y="-15"/>
      <point x="95" y="-111" type="curve"/>
      <point x="85" y="-102" type="line"/>
      <point x="179" y="-4"/>
      <point x="246" y="118"/>
      <point x="246" y="305" type="curve" smooth="yes"/>
      <point x="246" y="482"/>
      <point x="168" y="614"/>
      <point x="85" y="708" type="curve"/>
      <point x="96" y="717" type="line"/>
      <point x="181" y="625"/>
      <point x="268" y="488"/>
    </contour>
  </outline>
</glyph>
<glyph name="asterisk" format="1">
  <advance width="477"/>
  <unicode hex="002A"/>
  <outline>
    <contour>
      <point x="405" y="426" type="line"/>
      <point x="396" y="410" type="line"/>
      <point x="244" y="504" type="line"/>
      <point x="248" y="324" type="line"/>
      <point x="230" y="324" type="line"/>
      <point x="234" y="504" type="line"/>
      <point x="81" y="410" type="line"/>
      <point x="72" y="426" type="line"/>
      <point x="228" y="512" type="line"/>
      <point x="72" y="598" type="line"/>
      <point x="81" y="614" type="line"/>
      <point x="234" y="520" type="line"/>
      <point x="230" y="700" type="line"/>
      <point x="248" y="700" type="line"/>
      <point x="244" y="520" type="line"/>
      <point x="396" y="614" type="line"/>
      <point x="405" y="598" type="line"/>
      <point x="249" y="512" type="line"/>
    </contour>
  </outline>
</glyph>
<glyph name="plus" format="1">
  <advance width="569"/>
  <unicode hex="002B"/>
  <outline>
    <contour>
      <point x="515" y="334" type="line"/>
      <point x="295" y="334" type="line"/>
      <point x="295" y="90" type="line"/>
      <point x="275" y="90" type="line"/>
      <point x="275" y="334" type="line"/>
      <point x="54" y="334" type="line"/>
      <point x="54" y="354" type="line"/>
      <point x="275" y="354" type="line"/>
      <point x="275" y="598" type="line"/>
      <point x="295" y="598" type="line"/>
      <point x="295" y="354" type="line"/>
      <point x="515" y="354" type="line"/>
    </contour>
  </outline>
</glyph>
<glyph name="comma" format="1">
  <advance width="190"/>
  <unicode hex="002C"/>
  <outline>
    <contour>
      <point x="113" y="73" type="line"/>
      <point x="83" y="-80" type="line"/>
      <point x="68" y="-80" type="line"/>
      <point x="85" y="73" type="line"/>
    </contour>
  </outline>
</glyph>
<glyph name="hyphen" format="1">
  <advance width="313"/>
  <unicode hex="002D"/>
  <unicode hex="2010"/>
  <unicode hex="2011"/>
  <outline>
    <contour>
      <point x="261" y="353" type="line"/>
      <point x="52" y="353" type="line"/>
      <point x="52" y="374" type="line"/>
      <point x="261" y="374" type="line"/>
    </contour>
  </outline>
</glyph>
<glyph name="period" format="1">
  <advance width="190"/>
  <unicode hex="002E"/>
  <outline>
    <contour>
      <point x="117" y="20" type="curve" smooth="yes"/>
      <point x="117" y="7"/>
      <point x="106" y="-3"/>
      <point x="94" y="-3" type="curve" smooth="yes"/>
      <point x="81" y="-3"/>
      <point x="71" y="7"/>
      <point x="71" y="20" type="curve" smooth="yes"/>
      <point x="71" y="33"/>
      <point x="81" y="44"/>
      <point x="94" y="44" type="curve" smooth="yes"/>
      <point x="106" y="44"/>
      <point x="117" y="33"/>
    </contour>
  </outline>
</glyph>
<glyph name="slash" format="1">
  <advance width="406"/>
  <unicode hex="002F"/>
  <outline>
    <contour>
      <point x="358" y="790" type="line"/>
      <point x="69" y="-90" type="line"/>
      <point x="48" y="-90" type="line"/>
      <point x="337" y="790" type="line"/>
    </contour>
  </outline>
</glyph>
<glyph name="zero" format="1">
  <advance width="651"/>
  <unicode hex="0030"/>
  <outline>
    <contour>
      <point x="583" y="350" type="curve" smooth="yes"/>
      <point x="583" y="125"/>
      <point x="480" y="-11"/>
      <point x="325" y="-11" type="curve" smooth="yes"/>
      <point x="170" y="-11"/>
      <point x="67" y="125"/>
      <point x="67" y="350" type="curve" smooth="yes"/>
      <point x="67" y="575"/>
      <point x="170" y="711"/>
      <point x="325" y="711" type="curve" smooth="yes"/>
      <point x="480" y="711"/>
      <point x="583" y="575"/>
    </contour>
    <contour>
      <point x="561" y="350" type="curve" smooth="yes"/>
      <point x="561" y="561"/>
      <point x="470" y="691"/>
      <point x="325" y="691" type="curve" smooth="yes"/>
      <point x="180" y="691"/>
      <point x="89" y="561"/>
      <point x="89" y="350" type="curve" smooth="yes"/>
      <point x="89" y="139"/>
      <point x="180" y="9"/>
      <point x="325" y="9" type="curve" smooth="yes"/>
      <point x="470" y="9"/>
      <point x="561" y="139"/>
    </contour>
  </outline>
</glyph>
<glyph name="one" format="1">
  <advance width="277"/>
  <unicode hex="0031"/>
  <outline>
    <contour>
      <point x="174" y="0" type="line"/>
      <point x="152" y="0" type="line"/>
      <point x="152" y="666" type="line"/>
      <point x="142" y="639"/>
      <point x="73" y="610"/>
      <point x="29" y="610" type="curve"/>
      <point x="29" y="628" type="line"/>
      <point x="82" y="629"/>
      <point x="143" y="660"/>
      <point x="156" y="704" type="curve"/>
      <point x="174" y="704" type="line"/>
    </contour>
  </outline>
</glyph>
<glyph name="two" format="1">
  <advance width="551"/>
  <unicode hex="0032"/>
  <outline>
    <contour>
      <point x="474" y="0" type="line"/>
      <point x="52" y="0" type="line"/>
      <point x="58" y="119"/>
      <point x="117" y="201"/>
      <point x="265" y="308" type="curve" smooth="yes"/>
      <point x="408" y="411"/>
      <point x="444" y="458"/>
      <point x="444" y="542" type="curve" smooth="yes"/>
      <point x="444" y="640"/>
      <point x="376" y="691"/>
      <point x="270" y="691" type="curve" smooth="yes"/>
      <point x="193" y="691"/>
      <point x="135" y="667"/>
      <point x="89" y="636" type="curve"/>
      <point x="79" y="653" type="line"/>
      <point x="127" y="687"/>
      <point x="188" y="711"/>
      <point x="271" y="711" type="curve" smooth="yes"/>
      <point x="387" y="711"/>
      <point x="466" y="655"/>
      <point x="466" y="543" type="curve" smooth="yes"/>
      <point x="466" y="447"/>
      <point x="421" y="397"/>
      <point x="280" y="295" type="curve" smooth="yes"/>
      <point x="129" y="186"/>
      <point x="83" y="107"/>
      <point x="75" y="20" type="curve"/>
      <point x="474" y="20" type="line"/>
    </contour>
  </outline>
</glyph>
<glyph name="three" format="1">
  <advance width="537"/>
  <unicode hex="0033"/>
  <outline>
    <contour>
      <point x="467" y="191" type="curve" smooth="yes"/>
      <point x="467" y="63"/>
      <point x="379" y="-11"/>
      <point x="237" y="-11" type="curve" smooth="yes"/>
      <point x="170" y="-11"/>
      <point x="86" y="16"/>
      <point x="49" y="49" type="curve"/>
      <point x="61" y="65" type="line"/>
      <point x="98" y="34"/>
      <point x="175" y="9"/>
      <point x="238" y="9" type="curve" smooth="yes"/>
      <point x="369" y="9"/>
      <point x="445" y="75"/>
      <point x="445" y="191" type="curve" smooth="yes"/>
      <point x="445" y="315"/>
      <point x="355" y="362"/>
      <point x="240" y="362" type="curve" smooth="yes"/>
      <point x="204" y="362" type="line"/>
      <point x="204" y="381" type="line"/>
      <point x="240" y="381" type="line" smooth="yes"/>
      <point x="359" y="381"/>
      <point x="417" y="449"/>
      <point x="417" y="540" type="curve" smooth="yes"/>
      <point x="417" y="639"/>
      <point x="353" y="691"/>
      <point x="238" y="691" type="curve" smooth="yes"/>
      <point x="170" y="691"/>
      <point x="105" y="660"/>
      <point x="82" y="639" type="curve"/>
      <point x="70" y="655" type="line"/>
      <point x="94" y="677"/>
      <point x="162" y="711"/>
      <point x="239" y="711" type="curve" smooth="yes"/>
      <point x="359" y="711"/>
      <point x="439" y="656"/>
      <point x="439" y="543" type="curve" smooth="yes"/>
      <point x="439" y="444"/>
      <point x="377" y="384"/>
      <point x="301" y="373" type="curve"/>
      <point x="382" y="366"/>
      <point x="467" y="317"/>
    </contour>
  </outline>
</glyph>
<glyph name="four" format="1">
  <advance width="573"/>
  <unicode hex="0034"/>
  <outline>
    <contour>
      <point x="534" y="188" type="line"/>
      <point x="423" y="188" type="line"/>
      <point x="423" y="0" type="line"/>
      <point x="402" y="0" type="line"/>
      <point x="402" y="188" type="line"/>
      <point x="35" y="188" type="line"/>
      <point x="35" y="206" type="line"/>
      <point x="399" y="705" type="line"/>
      <point x="423" y="705" type="line"/>
      <point x="423" y="207" type="line"/>
      <point x="534" y="207" type="line"/>
    </contour>
    <contour>
      <point x="402" y="207" type="line"/>
      <point x="402" y="677" type="line"/>
      <point x="60" y="207" type="line"/>
    </contour>
  </outline>
</glyph>
<glyph name="five" format="1">
  <advance width="578"/>
  <unicode hex="0035"/>
  <outline>
    <contour>
      <point x="519" y="216" type="curve" smooth="yes"/>
      <point x="519" y="72"/>
      <point x="413" y="-11"/>
      <point x="265" y="-11" type="curve" smooth="yes"/>
      <point x="180" y="-11"/>
      <point x="103" y="17"/>
      <point x="70" y="38" type="curve"/>
      <point x="80" y="56" type="line"/>
      <point x="115" y="35"/>
      <point x="190" y="9"/>
      <point x="267" y="9" type="curve" smooth="yes"/>
      <point x="405" y="9"/>
      <point x="497" y="89"/>
      <point x="497" y="214" type="curve" smooth="yes"/>
      <point x="497" y="328"/>
      <point x="437" y="403"/>
      <point x="289" y="403" type="curve" smooth="yes"/>
      <point x="207" y="403"/>
      <point x="146" y="377"/>
      <point x="110" y="341" type="curve"/>
      <point x="88" y="349" type="line"/>
      <point x="114" y="700" type="line"/>
      <point x="487" y="700" type="line"/>
      <point x="487" y="680" type="line"/>
      <point x="133" y="680" type="line"/>
      <point x="110" y="367" type="line"/>
      <point x="145" y="398"/>
      <point x="207" y="423"/>
      <point x="290" y="423" type="curve" smooth="yes"/>
      <point x="452" y="423"/>
      <point x="519" y="339"/>
    </contour>
  </outline>
</glyph>
<glyph name="six" format="1">
  <advance width="607"/>
  <unicode hex="0036"/>
  <outline>
    <contour>
      <point x="554" y="211" type="curve" smooth="yes"/>
      <point x="554" y="82"/>
      <point x="455" y="-11"/>
      <point x="317" y="-11" type="curve" smooth="yes"/>
      <point x="175" y="-11"/>
      <point x="74" y="68"/>
      <point x="74" y="248" type="curve" smooth="yes"/>
      <point x="74" y="451"/>
      <point x="169" y="673"/>
      <point x="440" y="708" type="curve"/>
      <point x="440" y="688" type="line"/>
      <point x="197" y="653"/>
      <point x="106" y="462"/>
      <point x="95" y="278" type="curve"/>
      <point x="114" y="361"/>
      <point x="205" y="423"/>
      <point x="322" y="423" type="curve" smooth="yes"/>
      <point x="454" y="423"/>
      <point x="554" y="354"/>
    </contour>
    <contour>
      <point x="532" y="210" type="curve" smooth="yes"/>
      <point x="532" y="339"/>
      <point x="443" y="403"/>
      <point x="317" y="403" type="curve" smooth="yes"/>
      <point x="189" y="403"/>
      <point x="97" y="318"/>
      <point x="97" y="220" type="curve" smooth="yes"/>
      <point x="97" y="91"/>
      <point x="181" y="9"/>
      <point x="318" y="9" type="curve" smooth="yes"/>
      <point x="447" y="9"/>
      <point x="532" y="97"/>
    </contour>
  </outline>
</glyph>
<glyph name="seven" format="1">
  <advance width="524"/>
  <unicode hex="0037"/>
  <outline>
    <contour>
      <point x="468" y="680" type="line"/>
      <point x="337" y="517"/>
      <point x="215" y="288"/>
      <point x="203" y="0" type="curve"/>
      <point x="181" y="0" type="line"/>
      <point x="193" y="283"/>
      <point x="312" y="511"/>
      <point x="444" y="680" type="curve"/>
      <point x="30" y="680" type="line"/>
      <point x="30" y="700" type="line"/>
      <point x="468" y="700" type="line"/>
    </contour>
  </outline>
</glyph>
<glyph name="eight" format="1">
  <advance width="610"/>
  <unicode hex="0038"/>
  <outline>
    <contour>
      <point x="552" y="186" type="curve" smooth="yes"/>
      <point x="552" y="57"/>
      <point x="450" y="-11"/>
      <point x="305" y="-11" type="curve" smooth="yes"/>
      <point x="160" y="-11"/>
      <point x="58" y="56"/>
      <point x="58" y="186" type="curve" smooth="yes"/>
      <point x="58" y="295"/>
      <point x="136" y="359"/>
      <point x="254" y="371" type="curve"/>
      <point x="165" y="383"/>
      <point x="89" y="433"/>
      <point x="89" y="535" type="curve" smooth="yes"/>
      <point x="89" y="646"/>
      <point x="182" y="711"/>
      <point x="305" y="711" type="curve" smooth="yes"/>
      <point x="429" y="711"/>
      <point x="522" y="646"/>
      <point x="522" y="536" type="curve" smooth="yes"/>
      <point x="522" y="434"/>
      <point x="446" y="383"/>
      <point x="357" y="371" type="curve"/>
      <point x="474" y="359"/>
      <point x="552" y="296"/>
    </contour>
    <contour>
      <point x="500" y="535" type="curve" smooth="yes"/>
      <point x="500" y="632"/>
      <point x="418" y="691"/>
      <point x="305" y="691" type="curve" smooth="yes"/>
      <point x="192" y="691"/>
      <point x="111" y="632"/>
      <point x="111" y="536" type="curve" smooth="yes"/>
      <point x="111" y="437"/>
      <point x="191" y="381"/>
      <point x="305" y="381" type="curve" smooth="yes"/>
      <point x="419" y="381"/>
      <point x="500" y="437"/>
    </contour>
    <contour>
      <point x="530" y="186" type="curve" smooth="yes"/>
      <point x="530" y="297"/>
      <point x="440" y="360"/>
      <point x="305" y="360" type="curve" smooth="yes"/>
      <point x="170" y="360"/>
      <point x="80" y="298"/>
      <point x="80" y="186" type="curve" smooth="yes"/>
      <point x="80" y="72"/>
      <point x="170" y="9"/>
      <point x="305" y="9" type="curve" smooth="yes"/>
      <point x="440" y="9"/>
      <point x="530" y="71"/>
    </contour>
  </outline>
</glyph>
<glyph name="nine" format="1">
  <advance width="607"/>
  <unicode hex="0039"/>
  <outline>
    <contour>
      <point x="53" y="489" type="curve" smooth="yes"/>
      <point x="53" y="618"/>
      <point x="152" y="711"/>
      <point x="290" y="711" type="curve" smooth="yes"/>
      <point x="432" y="711"/>
      <point x="533" y="632"/>
      <point x="533" y="452" type="curve" smooth="yes"/>
      <point x="533" y="249"/>
      <point x="438" y="27"/>
      <point x="167" y="-8" type="curve"/>
      <point x="167" y="12" type="line"/>
      <point x="410" y="47"/>
      <point x="501" y="238"/>
      <point x="512" y="422" type="curve"/>
      <point x="493" y="339"/>
      <point x="402" y="277"/>
      <point x="285" y="277" type="curve" smooth="yes"/>
      <point x="153" y="277"/>
      <point x="53" y="346"/>
    </contour>
    <contour>
      <point x="75" y="490" type="curve" smooth="yes"/>
      <point x="75" y="361"/>
      <point x="164" y="297"/>
      <point x="290" y="297" type="curve" smooth="yes"/>
      <point x="418" y="297"/>
      <point x="510" y="382"/>
      <point x="510" y="480" type="curve" smooth="yes"/>
      <point x="510" y="609"/>
      <point x="426" y="691"/>
      <point x="289" y="691" type="curve" smooth="yes"/>
      <point x="160" y="691"/>
      <point x="75" y="603"/>
    </contour>
  </outline>
</glyph>
<glyph name="colon" format="1">
  <advance width="190"/>
  <unicode hex="003A"/>
  <outline>
    <contour>
      <point x="117" y="504" type="curve" smooth="yes"/>
      <point x="117" y="491"/>
      <point x="106" y="481"/>
      <point x="94" y="481" type="curve" smooth="yes"/>
      <point x="81" y="481"/>
      <point x="71" y="491"/>
      <point x="71" y="504" type="curve" smooth="yes"/>
      <point x="71" y="517"/>
      <point x="81" y="528"/>
      <point x="94" y="528" type="curve" smooth="yes"/>
      <point x="106" y="528"/>
      <point x="117" y="517"/>
    </contour>
    <contour>
      <point x="117" y="20" type="curve" smooth="yes"/>
      <point x="117" y="7"/>
      <point x="106" y="-3"/>
      <point x="94" y="-3" type="curve" smooth="yes"/>
      <point x="81" y="-3"/>
      <point x="71" y="7"/>
      <point x="71" y="20" type="curve" smooth="yes"/>
      <point x="71" y="33"/>
      <point x="81" y="44"/>
      <point x="94" y="44" type="curve" smooth="yes"/>
      <point x="106" y="44"/>
      <point x="117" y="33"/>
    </contour>
  </outline>
</glyph>
<glyph name="semicolon" format="1">
  <advance width="190"/>
  <unicode hex="003B"/>
  <outline>
    <contour>
      <point x="117" y="504" type="curve" smooth="yes"/>
      <point x="117" y="491"/>
      <point x="106" y="481"/>
      <point x="94" y="481" type="curve" smooth="yes"/>
      <point x="81" y="481"/>
      <point x="71" y="491"/>
      <point x="71" y="504" type="curve" smooth="yes"/>
      <point x="71" y="517"/>
      <point x="81" y="528"/>
      <point x="94" y="528" type="curve" smooth="yes"/>
      <point x="106" y="528"/>
      <point x="117" y="517"/>
    </contour>
    <contour>
      <point x="105" y="73" type="line"/>
      <point x="75" y="-80" type="line"/>
      <point x="60" y="-80" type="line"/>
      <point x="77" y="73" type="line"/>
    </contour>
  </outline>
</glyph>
<glyph name="less" format="1">
  <advance width="385"/>
  <unicode hex="003C"/>
  <outline>
    <contour>
      <point x="311" y="64" type="line"/>
      <point x="53" y="335" type="line"/>
      <point x="53" y="353" type="line"/>
      <point x="311" y="624" type="line"/>
      <point x="314" y="600" type="line"/>
      <point x="71" y="344" type="line"/>
      <point x="314" y="89" type="line"/>
    </contour>
  </outline>
</glyph>
<glyph name="equal" format="1">
  <advance width="581"/>
  <unicode hex="003D"/>
  <outline>
    <contour>
      <point x="494" y="435" type="line"/>
      <point x="87" y="435" type="line"/>
      <point x="87" y="455" type="line"/>
      <point x="494" y="455" type="line"/>
    </contour>
    <contour>
      <point x="494" y="233" type="line"/>
      <point x="87" y="233" type="line"/>
      <point x="87" y="253" type="line"/>
      <point x="494" y="253" type="line"/>
    </contour>
  </outline>
</glyph>
<glyph name="greater" format="1">
  <advance width="385"/>
  <unicode hex="003E"/>
  <outline>
    <contour>
      <point x="332" y="335" type="line"/>
      <point x="74" y="64" type="line"/>
      <point x="71" y="88" type="line"/>
      <point x="314" y="344" type="line"/>
      <point x="71" y="599" type="line"/>
      <point x="74" y="624" type="line"/>
      <point x="332" y="353" type="line"/>
    </contour>
  </outline>
</glyph>
<glyph name="question" format="1">
  <advance width="554"/>
  <unicode hex="003F"/>
  <outline>
    <contour>
      <point x="467" y="551" type="curve" smooth="yes"/>
      <point x="467" y="465"/>
      <point x="430" y="431"/>
      <point x="347" y="361" type="curve" smooth="yes"/>
      <point x="277" y="302"/>
      <point x="260" y="279"/>
      <point x="260" y="144" type="curve"/>
      <point x="238" y="144" type="line"/>
      <point x="238" y="280"/>
      <point x="254" y="308"/>
      <point x="336" y="378" type="curve" smooth="yes"/>
      <point x="414" y="445"/>
      <point x="445" y="476"/>
      <point x="445" y="550" type="curve" smooth="yes"/>
      <point x="445" y="634"/>
      <point x="376" y="691"/>
      <point x="273" y="691" type="curve" smooth="yes"/>
      <point x="187" y="691"/>
      <point x="125" y="660"/>
      <point x="72" y="619" type="curve"/>
      <point x="61" y="636" type="line"/>
      <point x="112" y="677"/>
      <point x="179" y="711"/>
      <point x="274" y="711" type="curve" smooth="yes"/>
      <point x="389" y="711"/>
      <point x="467" y="649"/>
    </contour>
    <contour>
      <point x="272" y="20" type="curve" smooth="yes"/>
      <point x="272" y="7"/>
      <point x="261" y="-3"/>
      <point x="249" y="-3" type="curve" smooth="yes"/>
      <point x="236" y="-3"/>
      <point x="226" y="7"/>
      <point x="226" y="20" type="curve" smooth="yes"/>
      <point x="226" y="33"/>
      <point x="236" y="44"/>
      <point x="249" y="44" type="curve" smooth="yes"/>
      <point x="261" y="44"/>
      <point x="272" y="33"/>
    </contour>
  </outline>
</glyph>
<glyph name="at" format="1">
  <advance width="836"/>
  <unicode hex="0040"/>
  <outline>
    <contour>
      <point x="779" y="360" type="curve" smooth="yes"/>
      <point x="779" y="211"/>
      <point x="716" y="152"/>
      <point x="634" y="152" type="curve" smooth="yes"/>
      <point x="582" y="152"/>
      <point x="546" y="181"/>
      <point x="536" y="230" type="curve"/>
      <point x="504" y="183"/>
      <point x="453" y="153"/>
      <point x="394" y="153" type="curve" smooth="yes"/>
      <point x="320" y="153"/>
      <point x="252" y="187"/>
      <point x="252" y="276" type="curve" smooth="yes"/>
      <point x="252" y="361"/>
      <point x="320" y="406"/>
      <point x="403" y="406" type="curve" smooth="yes"/>
      <point x="457" y="406"/>
      <point x="500" y="391"/>
      <point x="532" y="372" type="curve"/>
      <point x="532" y="440" type="line" smooth="yes"/>
      <point x="532" y="518"/>
      <point x="495" y="546"/>
      <point x="414" y="546" type="curve" smooth="yes"/>
      <point x="369" y="546"/>
      <point x="333" y="532"/>
      <point x="299" y="516" type="curve"/>
      <point x="292" y="535" type="line"/>
      <point x="328" y="552"/>
      <point x="367" y="565"/>
      <point x="416" y="565" type="curve" smooth="yes"/>
      <point x="504" y="565"/>
      <point x="552" y="535"/>
      <point x="552" y="441" type="curve" smooth="yes"/>
      <point x="552" y="260" type="line" smooth="yes"/>
      <point x="552" y="203"/>
      <point x="581" y="170"/>
      <point x="636" y="170" type="curve" smooth="yes"/>
      <point x="705" y="170"/>
      <point x="760" y="223"/>
      <point x="760" y="360" type="curve" smooth="yes"/>
      <point x="760" y="545"/>
      <point x="618" y="693"/>
      <point x="418" y="693" type="curve" smooth="yes"/>
      <point x="220" y="693"/>
      <point x="76" y="551"/>
      <point x="76" y="350" type="curve" smooth="yes"/>
      <point x="76" y="150"/>
      <point x="220" y="7"/>
      <point x="418" y="7" type="curve" smooth="yes"/>
      <point x="474" y="7"/>
      <point x="514" y="15"/>
      <point x="566" y="40" type="curve"/>
      <point x="572" y="23" type="line"/>
      <point x="515" y="-3"/>
      <point x="475" y="-11"/>
      <point x="418" y="-11" type="curve" smooth="yes"/>
      <point x="209" y="-11"/>
      <point x="57" y="137"/>
      <point x="57" y="350" type="curve" smooth="yes"/>
      <point x="57" y="559"/>
      <point x="208" y="711"/>
      <point x="418" y="711" type="curve" smooth="yes"/>
      <point x="631" y="711"/>
      <point x="779" y="550"/>
    </contour>
    <contour>
      <point x="532" y="252" type="curve"/>
      <point x="532" y="352" type="line"/>
      <point x="500" y="370"/>
      <point x="456" y="387"/>
      <point x="401" y="387" type="curve" smooth="yes"/>
      <point x="330" y="387"/>
      <point x="273" y="348"/>
      <point x="273" y="277" type="curve" smooth="yes"/>
      <point x="273" y="202"/>
      <point x="329" y="172"/>
      <point x="396" y="172" type="curve" smooth="yes"/>
      <point x="452" y="172"/>
      <point x="502" y="205"/>
    </contour>
  </outline>
</glyph>
<glyph name="A" format="1">
  <advance width="654"/>
  <unicode hex="0041"/>
  <outline>
    <contour>
      <point x="585" y="0" type="line"/>
      <point x="562" y="0" type="line"/>
      <point x="491" y="204" type="line"/>
      <point x="163" y="204" type="line"/>
      <point x="91" y="0" type="line"/>
      <point x="69" y="0" type="line"/>
      <point x="315" y="704" type="line"/>
      <point x="339" y="704" type="line"/>
    </contour>
    <contour>
      <point x="484" y="224" type="line"/>
      <point x="327" y="676" type="line"/>
      <point x="170" y="224" type="line"/>
    </contour>
  </outline>
</glyph>
<glyph name="B" format="1">
  <advance width="592"/>
  <unicode hex="0042"/>
  <outline>
    <contour>
      <point x="529" y="200" type="curve" smooth="yes"/>
      <point x="529" y="69"/>
      <point x="445" y="0"/>
      <point x="306" y="0" type="curve" smooth="yes"/>
      <point x="100" y="0" type="line"/>
      <point x="100" y="700" type="line"/>
      <point x="301" y="700" type="line" smooth="yes"/>
      <point x="396" y="700"/>
      <point x="486" y="658"/>
      <point x="486" y="540" type="curve" smooth="yes"/>
      <point x="486" y="445"/>
      <point x="426" y="393"/>
      <point x="356" y="383" type="curve"/>
      <point x="440" y="374"/>
      <point x="529" y="315"/>
    </contour>
    <contour>
      <point x="464" y="539" type="curve" smooth="yes"/>
      <point x="464" y="642"/>
      <point x="386" y="680"/>
      <point x="300" y="680" type="curve" smooth="yes"/>
      <point x="122" y="680" type="line"/>
      <point x="122" y="391" type="line"/>
      <point x="300" y="391" type="line" smooth="yes"/>
      <point x="396" y="391"/>
      <point x="464" y="441"/>
    </contour>
    <contour>
      <point x="507" y="199" type="curve" smooth="yes"/>
      <point x="507" y="308"/>
      <point x="424" y="371"/>
      <point x="302" y="371" type="curve" smooth="yes"/>
      <point x="122" y="371" type="line"/>
      <point x="122" y="20" type="line"/>
      <point x="307" y="20" type="line" smooth="yes"/>
      <point x="434" y="20"/>
      <point x="507" y="84"/>
    </contour>
  </outline>
</glyph>
<glyph name="C" format="1">
  <advance width="613"/>
  <unicode hex="0043"/>
  <outline>
    <contour>
      <point x="548" y="68" type="line"/>
      <point x="496" y="15"/>
      <point x="429" y="-11"/>
      <point x="355" y="-11" type="curve" smooth="yes"/>
      <point x="189" y="-11"/>
      <point x="73" y="131"/>
      <point x="73" y="350" type="curve" smooth="yes"/>
      <point x="73" y="569"/>
      <point x="190" y="711"/>
      <point x="355" y="711" type="curve" smooth="yes"/>
      <point x="432" y="711"/>
      <point x="495" y="684"/>
      <point x="537" y="640" type="curve"/>
      <point x="523" y="626" type="line"/>
      <point x="481" y="668"/>
      <point x="431" y="691"/>
      <point x="355" y="691" type="curve" smooth="yes"/>
      <point x="204" y="691"/>
      <point x="95" y="558"/>
      <point x="95" y="350" type="curve" smooth="yes"/>
      <point x="95" y="142"/>
      <point x="205" y="9"/>
      <point x="355" y="9" type="curve" smooth="yes"/>
      <point x="426" y="9"/>
      <point x="488" y="34"/>
      <point x="534" y="82" type="curve"/>
    </contour>
  </outline>
</glyph>
<glyph name="D" format="1">
  <advance width="663"/>
  <unicode hex="0044"/>
  <outline>
    <contour>
      <point x="588" y="351" type="curve" smooth="yes"/>
      <point x="588" y="104"/>
      <point x="470" y="0"/>
      <point x="275" y="0" type="curve" smooth="yes"/>
      <point x="100" y="0" type="line"/>
      <point x="100" y="700" type="line"/>
      <point x="279" y="700" type="line" smooth="yes"/>
      <point x="473" y="700"/>
      <point x="588" y="593"/>
    </contour>
    <contour>
      <point x="566" y="350" type="curve" smooth="yes"/>
      <point x="566" y="575"/>
      <point x="465" y="680"/>
      <point x="277" y="680" type="curve" smooth="yes"/>
      <point x="122" y="680" type="line"/>
      <point x="122" y="20" type="line"/>
      <point x="278" y="20" type="line" smooth="yes"/>
      <point x="462" y="20"/>
      <point x="566" y="118"/>
    </contour>
  </outline>
</glyph>
<glyph name="E" format="1">
  <advance width="532"/>
  <unicode hex="0045"/>
  <outline>
    <contour>
      <point x="490" y="0" type="line"/>
      <point x="100" y="0" type="line"/>
      <point x="100" y="700" type="line"/>
      <point x="475" y="700" type="line"/>
      <point x="475" y="680" type="line"/>
      <point x="122" y="680" type="line"/>
      <point x="122" y="383" type="line"/>
      <point x="341" y="383" type="line"/>
      <point x="341" y="363" type="line"/>
      <point x="122" y="363" type="line"/>
      <point x="122" y="20" type="line"/>
      <point x="490" y="20" type="line"/>
    </contour>
  </outline>
</glyph>
<glyph name="F" format="1">
  <advance width="505"/>
  <unicode hex="0046"/>
  <outline>
    <contour>
      <point x="464" y="680" type="line"/>
      <point x="122" y="680" type="line"/>
      <point x="122" y="371" type="line"/>
      <point x="335" y="371" type="line"/>
      <point x="335" y="350" type="line"/>
      <point x="122" y="350" type="line"/>
      <point x="122" y="0" type="line"/>
      <point x="100" y="0" type="line"/>
      <point x="100" y="700" type="line"/>
      <point x="464" y="700" type="line"/>
    </contour>
  </outline>
</glyph>
<glyph name="G" format="1">
  <advance width="664"/>
  <unicode hex="0047"/>
  <outline>
    <contour>
      <point x="596" y="277" type="line" smooth="yes"/>
      <point x="596" y="90"/>
      <point x="503" y="-11"/>
      <point x="356" y="-11" type="curve" smooth="yes"/>
      <point x="190" y="-11"/>
      <point x="74" y="132"/>
      <point x="74" y="350" type="curve" smooth="yes"/>
      <point x="74" y="568"/>
      <point x="191" y="711"/>
      <point x="356" y="711" type="curve" smooth="yes"/>
      <point x="450" y="711"/>
      <point x="509" y="677"/>
      <point x="557" y="625" type="curve"/>
      <point x="542" y="610" type="line"/>
      <point x="497" y="658"/>
      <point x="444" y="691"/>
      <point x="356" y="691" type="curve" smooth="yes"/>
      <point x="204" y="691"/>
      <point x="96" y="557"/>
      <point x="96" y="350" type="curve" smooth="yes"/>
      <point x="96" y="142"/>
      <point x="205" y="9"/>
      <point x="356" y="9" type="curve" smooth="yes"/>
      <point x="494" y="9"/>
      <point x="574" y="102"/>
      <point x="574" y="275" type="curve" smooth="yes"/>
      <point x="574" y="292" type="line"/>
      <point x="401" y="292" type="line"/>
      <point x="401" y="312" type="line"/>
      <point x="596" y="312" type="line"/>
    </contour>
  </outline>
</glyph>
<glyph name="H" format="1">
  <advance width="664"/>
  <unicode hex="0048"/>
  <outline>
    <contour>
      <point x="564" y="0" type="line"/>
      <point x="542" y="0" type="line"/>
      <point x="542" y="355" type="line"/>
      <point x="122" y="355" type="line"/>
      <point x="122" y="0" type="line"/>
      <point x="100" y="0" type="line"/>
      <point x="100" y="700" type="line"/>
      <point x="122" y="700" type="line"/>
      <point x="122" y="375" type="line"/>
      <point x="542" y="375" type="line"/>
      <point x="542" y="700" type="line"/>
      <point x="564" y="700" type="line"/>
    </contour>
  </outline>
</glyph>
<glyph name="J" format="1">
  <advance width="547"/>
  <unicode hex="004A"/>
  <outline>
    <contour>
      <point x="452" y="223" type="line" smooth="yes"/>
      <point x="452" y="58"/>
      <point x="376" y="-11"/>
      <point x="247" y="-11" type="curve" smooth="yes"/>
      <point x="149" y="-11"/>
      <point x="82" y="34"/>
      <point x="45" y="121" type="curve"/>
      <point x="64" y="130" type="line"/>
      <point x="100" y="50"/>
      <point x="157" y="9"/>
      <point x="247" y="9" type="curve" smooth="yes"/>
      <point x="363" y="9"/>
      <point x="430" y="67"/>
      <point x="430" y="224" type="curve" smooth="yes"/>
      <point x="430" y="700" type="line"/>
      <point x="452" y="700" type="line"/>
    </contour>
  </outline>
</glyph>
<glyph name="K" format="1">
  <advance width="597"/>
  <unicode hex="004B"/>
  <outline>
    <contour>
      <point x="550" y="0" type="line"/>
      <point x="525" y="0" type="line"/>
      <point x="281" y="393" type="line"/>
      <point x="122" y="189" type="line"/>
      <point x="122" y="0" type="line"/>
      <point x="100" y="0" type="line"/>
      <point x="100" y="700" type="line"/>
      <point x="122" y="700" type="line"/>
      <point x="122" y="220" type="line"/>
      <point x="496" y="700" type="line"/>
      <point x="522" y="700" type="line"/>
      <point x="296" y="411" type="line"/>
    </contour>
  </outline>
</glyph>
<glyph name="L" format="1">
  <advance width="511"/>
  <unicode hex="004C"/>
  <outline>
    <contour>
      <point x="467" y="0" type="line"/>
      <point x="100" y="0" type="line"/>
      <point x="100" y="700" type="line"/>
      <point x="122" y="700" type="line"/>
      <point x="122" y="20" type="line"/>
      <point x="467" y="20" type="line"/>
    </contour>
  </outline>
</glyph>
<glyph name="M" format="1">
  <advance width="793"/>
  <unicode hex="004D"/>
  <outline>
    <contour>
      <point x="693" y="0" type="line"/>
      <point x="671" y="0" type="line"/>
      <point x="671" y="650" type="line"/>
      <point x="397" y="-8" type="line"/>
      <point x="395" y="-8" type="line"/>
      <point x="122" y="650" type="line"/>
      <point x="122" y="0" type="line"/>
      <point x="100" y="0" type="line"/>
      <point x="100" y="700" type="line"/>
      <point x="124" y="700" type="line"/>
      <point x="397" y="42" type="line"/>
      <point x="669" y="700" type="line"/>
      <point x="693" y="700" type="line"/>
    </contour>
  </outline>
</glyph>
<glyph name="N" format="1">
  <advance width="660"/>
  <unicode hex="004E"/>
  <outline>
    <contour>
      <point x="560" y="0" type="line"/>
      <point x="535" y="0" type="line"/>
      <point x="122" y="667" type="line"/>
      <point x="122" y="0" type="line"/>
      <point x="100" y="0" type="line"/>
      <point x="100" y="700" type="line"/>
      <point x="126" y="700" type="line"/>
      <point x="538" y="35" type="line"/>
      <point x="538" y="700" type="line"/>
      <point x="560" y="700" type="line"/>
    </contour>
  </outline>
</glyph>
<glyph name="O" format="1">
  <advance width="722"/>
  <unicode hex="004F"/>
  <outline>
    <contour>
      <point x="648" y="350" type="curve" smooth="yes"/>
      <point x="648" y="124"/>
      <point x="527" y="-11"/>
      <point x="361" y="-11" type="curve" smooth="yes"/>
      <point x="195" y="-11"/>
      <point x="74" y="124"/>
      <point x="74" y="350" type="curve" smooth="yes"/>
      <point x="74" y="575"/>
      <point x="195" y="711"/>
      <point x="361" y="711" type="curve" smooth="yes"/>
      <point x="527" y="711"/>
      <point x="648" y="576"/>
    </contour>
    <contour>
      <point x="626" y="350" type="curve" smooth="yes"/>
      <point x="626" y="564"/>
      <point x="512" y="691"/>
      <point x="361" y="691" type="curve" smooth="yes"/>
      <point x="210" y="691"/>
      <point x="96" y="564"/>
      <point x="96" y="350" type="curve" smooth="yes"/>
      <point x="96" y="136"/>
      <point x="210" y="9"/>
      <point x="362" y="9" type="curve" smooth="yes"/>
      <point x="514" y="9"/>
      <point x="626" y="136"/>
    </contour>
  </outline>
</glyph>
<glyph name="P" format="1">
  <advance width="576"/>
  <unicode hex="0050"/>
  <outline>
    <contour>
      <point x="528" y="506" type="curve" smooth="yes"/>
      <point x="528" y="371"/>
      <point x="441" y="304"/>
      <point x="289" y="304" type="curve" smooth="yes"/>
      <point x="122" y="304" type="line"/>
      <point x="122" y="0" type="line"/>
      <point x="100" y="0" type="line"/>
      <point x="100" y="700" type="line"/>
      <point x="303" y="700" type="line" smooth="yes"/>
      <point x="439" y="700"/>
      <point x="528" y="647"/>
    </contour>
    <contour>
      <point x="505" y="505" type="curve" smooth="yes"/>
      <point x="505" y="632"/>
      <point x="429" y="680"/>
      <point x="302" y="680" type="curve" smooth="yes"/>
      <point x="122" y="680" type="line"/>
      <point x="122" y="324" type="line"/>
      <point x="289" y="324" type="line" smooth="yes"/>
      <point x="431" y="324"/>
      <point x="505" y="383"/>
    </contour>
  </outline>
</glyph>
<glyph name="Q" format="1">
  <advance width="722"/>
  <unicode hex="0051"/>
  <outline>
    <contour>
      <point x="648" y="350" type="curve" smooth="yes"/>
      <point x="648" y="203"/>
      <point x="596" y="94"/>
      <point x="513" y="36" type="curve"/>
      <point x="551" y="-23" type="line"/>
      <point x="534" y="-34" type="line"/>
      <point x="496" y="25" type="line"/>
      <point x="457" y="2"/>
      <point x="411" y="-11"/>
      <point x="361" y="-11" type="curve" smooth="yes"/>
      <point x="195" y="-11"/>
      <point x="74" y="124"/>
      <point x="74" y="350" type="curve" smooth="yes"/>
      <point x="74" y="575"/>
      <point x="196" y="711"/>
      <point x="361" y="711" type="curve" smooth="yes"/>
      <point x="527" y="711"/>
      <point x="648" y="576"/>
    </contour>
    <contour>
      <point x="626" y="350" type="curve" smooth="yes"/>
      <point x="626" y="564"/>
      <point x="512" y="691"/>
      <point x="361" y="691" type="curve" smooth="yes"/>
      <point x="209" y="691"/>
      <point x="96" y="565"/>
      <point x="96" y="350" type="curve" smooth="yes"/>
      <point x="96" y="136"/>
      <point x="210" y="9"/>
      <point x="362" y="9" type="curve" smooth="yes"/>
      <point x="407" y="9"/>
      <point x="449" y="21"/>
      <point x="485" y="42" type="curve"/>
      <point x="415" y="153" type="line"/>
      <point x="433" y="164" type="line"/>
      <point x="503" y="53" type="line"/>
      <point x="578" y="108"/>
      <point x="626" y="209"/>
    </contour>
  </outline>
</glyph>
<glyph name="R" format="1">
  <advance width="603"/>
  <unicode hex="0052"/>
  <outline>
    <contour>
      <point x="353" y="325" type="curve"/>
      <point x="524" y="0" type="line"/>
      <point x="498" y="0" type="line"/>
      <point x="329" y="323" type="line"/>
      <point x="314" y="321"/>
      <point x="299" y="321"/>
      <point x="282" y="321" type="curve" smooth="yes"/>
      <point x="122" y="321" type="line"/>
      <point x="122" y="0" type="line"/>
      <point x="100" y="0" type="line"/>
      <point x="100" y="700" type="line"/>
      <point x="300" y="700" type="line" smooth="yes"/>
      <point x="436" y="700"/>
      <point x="530" y="654"/>
      <point x="530" y="515" type="curve" smooth="yes"/>
      <point x="530" y="404"/>
      <point x="474" y="342"/>
    </contour>
    <contour>
      <point x="508" y="514" type="curve" smooth="yes"/>
      <point x="508" y="639"/>
      <point x="427" y="680"/>
      <point x="299" y="680" type="curve" smooth="yes"/>
      <point x="122" y="680" type="line"/>
      <point x="122" y="341" type="line"/>
      <point x="286" y="341" type="line" smooth="yes"/>
      <point x="435" y="341"/>
      <point x="508" y="392"/>
    </contour>
  </outline>
</glyph>
<glyph name="S" format="1">
  <advance width="565"/>
  <unicode hex="0053"/>
  <outline>
    <contour>
      <point x="486" y="170" type="curve" smooth="yes"/>
      <point x="486" y="51"/>
      <point x="395" y="-11"/>
      <point x="278" y="-11" type="curve" smooth="yes"/>
      <point x="186" y="-11"/>
      <point x="119" y="19"/>
      <point x="62" y="64" type="curve"/>
      <point x="74" y="80" type="line"/>
      <point x="134" y="34"/>
      <point x="192" y="8"/>
      <point x="279" y="8" type="curve" smooth="yes"/>
      <point x="381" y="8"/>
      <point x="464" y="59"/>
      <point x="464" y="169" type="curve" smooth="yes"/>
      <point x="464" y="258"/>
      <point x="416" y="298"/>
      <point x="268" y="354" type="curve" smooth="yes"/>
      <point x="117" y="411"/>
      <point x="75" y="452"/>
      <point x="75" y="543" type="curve" smooth="yes"/>
      <point x="75" y="634"/>
      <point x="142" y="711"/>
      <point x="276" y="711" type="curve" smooth="yes"/>
      <point x="360" y="711"/>
      <point x="423" y="685"/>
      <point x="475" y="650" type="curve"/>
      <point x="463" y="633" type="line"/>
      <point x="413" y="667"/>
      <point x="356" y="692"/>
      <point x="275" y="692" type="curve" smooth="yes"/>
      <point x="151" y="692"/>
      <point x="97" y="621"/>
      <point x="97" y="545" type="curve" smooth="yes"/>
      <point x="97" y="464"/>
      <point x="133" y="427"/>
      <point x="280" y="372" type="curve" smooth="yes"/>
      <point x="432" y="315"/>
      <point x="486" y="268"/>
    </contour>
  </outline>
</glyph>
<glyph name="T" format="1">
  <advance width="564"/>
  <unicode hex="0054"/>
  <outline>
    <contour>
      <point x="516" y="680" type="line"/>
      <point x="291" y="680" type="line"/>
      <point x="291" y="0" type="line"/>
      <point x="269" y="0" type="line"/>
      <point x="269" y="680" type="line"/>
      <point x="44" y="680" type="line"/>
      <point x="44" y="700" type="line"/>
      <point x="516" y="700" type="line"/>
    </contour>
  </outline>
</glyph>
<glyph name="U" format="1">
  <advance width="659"/>
  <unicode hex="0055"/>
  <outline>
    <contour>
      <point x="565" y="258" type="line" smooth="yes"/>
      <point x="565" y="75"/>
      <point x="482" y="-11"/>
      <point x="330" y="-11" type="curve" smooth="yes"/>
      <point x="176" y="-11"/>
      <point x="95" y="75"/>
      <point x="95" y="258" type="curve" smooth="yes"/>
      <point x="95" y="700" type="line"/>
      <point x="117" y="700" type="line"/>
      <point x="117" y="258" type="line" smooth="yes"/>
      <point x="117" y="88"/>
      <point x="189" y="9"/>
      <point x="330" y="9" type="curve" smooth="yes"/>
      <point x="471" y="9"/>
      <point x="543" y="88"/>
      <point x="543" y="258" type="curve" smooth="yes"/>
      <point x="543" y="700" type="line"/>
      <point x="565" y="700" type="line"/>
    </contour>
  </outline>
</glyph>
<glyph name="V" format="1">
  <advance width="651"/>
  <unicode hex="0056"/>
  <outline>
    <contour>
      <point x="582" y="700" type="line"/>
      <point x="338" y="-4" type="line"/>
      <point x="314" y="-4" type="line"/>
      <point x="69" y="700" type="line"/>
      <point x="92" y="700" type="line"/>
      <point x="326" y="23" type="line"/>
      <point x="560" y="700" type="line"/>
    </contour>
  </outline>
</glyph>
<glyph name="W" format="1">
  <advance width="889"/>
  <unicode hex="0057"/>
  <outline>
    <contour>
      <point x="816" y="700" type="line"/>
      <point x="658" y="-4" type="line"/>
      <point x="634" y="-4" type="line"/>
      <point x="444" y="669" type="line"/>
      <point x="255" y="-4" type="line"/>
      <point x="231" y="-4" type="line"/>
      <point x="74" y="700" type="line"/>
      <point x="96" y="700" type="line"/>
      <point x="244" y="28" type="line"/>
      <point x="433" y="701" type="line"/>
      <point x="457" y="701" type="line"/>
      <point x="646" y="28" type="line"/>
      <point x="794" y="700" type="line"/>
    </contour>
  </outline>
</glyph>
<glyph name="X" format="1">
  <advance width="599"/>
  <unicode hex="0058"/>
  <outline>
    <contour>
      <point x="299" y="386" type="line"/>
      <point x="493" y="700" type="line"/>
      <point x="517" y="700" type="line"/>
      <point x="311" y="367" type="line"/>
      <point x="537" y="0" type="line"/>
      <point x="513" y="0" type="line"/>
      <point x="299" y="347" type="line"/>
      <point x="85" y="0" type="line"/>
      <point x="61" y="0" type="line"/>
      <point x="287" y="366" type="line"/>
      <point x="82" y="700" type="line"/>
      <point x="106" y="700" type="line"/>
    </contour>
  </outline>
</glyph>
<glyph name="Y" format="1">
  <advance width="619"/>
  <unicode hex="0059"/>
  <outline>
    <contour>
      <point x="558" y="700" type="line"/>
      <point x="320" y="294" type="line"/>
      <point x="320" y="0" type="line"/>
      <point x="298" y="0" type="line"/>
      <point x="298" y="294" type="line"/>
      <point x="61" y="700" type="line"/>
      <point x="86" y="700" type="line"/>
      <point x="310" y="317" type="line"/>
      <point x="533" y="700" type="line"/>
    </contour>
  </outline>
</glyph>
<glyph name="Z" format="1">
  <advance width="589"/>
  <unicode hex="005A"/>
  <outline>
    <contour>
      <point x="515" y="0" type="line"/>
      <point x="61" y="0" type="line"/>
      <point x="61" y="20" type="line"/>
      <point x="490" y="680" type="line"/>
      <point x="82" y="680" type="line"/>
      <point x="82" y="700" type="line"/>
      <point x="515" y="700" type="line"/>
      <point x="515" y="680" type="line"/>
      <point x="86" y="20" type="line"/>
      <point x="515" y="20" type="line"/>
    </contour>
  </outline>
</glyph>
<glyph name="bracketleft" format="1">
  <advance width="320"/>
  <unicode hex="005B"/>
  <outline>
    <contour>
      <point x="253" y="-110" type="line"/>
      <point x="103" y="-110" type="line"/>
      <point x="103" y="700" type="line"/>
      <point x="253" y="700" type="line"/>
      <point x="253" y="682" type="line"/>
      <point x="124" y="682" type="line"/>
      <point x="124" y="-92" type="line"/>
      <point x="253" y="-92" type="line"/>
    </contour>
  </outline>
</glyph>
<glyph name="backslash" format="1">
  <advance width="406"/>
  <unicode hex="005C"/>
  <outline>
    <contour>
      <point x="358" y="-90" type="line"/>
      <point x="337" y="-90" type="line"/>
      <point x="48" y="790" type="line"/>
      <point x="69" y="790" type="line"/>
    </contour>
  </outline>
</glyph>
<glyph name="bracketright" format="1">
  <advance width="320"/>
  <unicode hex="005D"/>
  <outline>
    <contour>
      <point x="217" y="-110" type="line"/>
      <point x="67" y="-110" type="line"/>
      <point x="67" y="-92" type="line"/>
      <point x="196" y="-92" type="line"/>
      <point x="196" y="682" type="line"/>
      <point x="67" y="682" type="line"/>
      <point x="67" y="700" type="line"/>
      <point x="217" y="700" type="line"/>
    </contour>
  </outline>
</glyph>
<glyph name="asciicircum" format="1">
  <advance width="544"/>
  <unicode hex="005E"/>
  <outline>
    <contour>
      <point x="481" y="382" type="line"/>
      <point x="456" y="382" type="line"/>
      <point x="272" y="677" type="line"/>
      <point x="88" y="382" type="line"/>
      <point x="64" y="382" type="line"/>
      <point x="264" y="700" type="line"/>
      <point x="281" y="700" type="line"/>
    </contour>
  </outline>
</glyph>
<glyph name="grave" format="1">
  <advance width="500"/>
  <unicode hex="0060"/>
  <outline>
    <contour>
      <point x="301" y="595" type="line"/>
      <point x="283" y="595" type="line"/>
      <point x="168" y="732" type="line"/>
      <point x="198" y="732" type="line"/>
    </contour>
  </outline>
</glyph>
<glyph name="a" format="1">
  <advance width="527"/>
  <unicode hex="0061"/>
  <outline>
    <contour>
      <point x="443" y="0" type="line"/>
      <point x="421" y="0" type="line"/>
      <point x="421" y="89" type="line"/>
      <point x="379" y="32"/>
      <point x="314" y="-11"/>
      <point x="234" y="-11" type="curve" smooth="yes"/>
      <point x="145" y="-11"/>
      <point x="55" y="27"/>
      <point x="55" y="146" type="curve" smooth="yes"/>
      <point x="55" y="261"/>
      <point x="143" y="317"/>
      <point x="250" y="317" type="curve" smooth="yes"/>
      <point x="321" y="317"/>
      <point x="380" y="296"/>
      <point x="421" y="273" type="curve"/>
      <point x="421" y="360" type="line" smooth="yes"/>
      <point x="421" y="477"/>
      <point x="373" y="516"/>
      <point x="268" y="516" type="curve" smooth="yes"/>
      <point x="205" y="516"/>
      <point x="158" y="498"/>
      <point x="112" y="475" type="curve"/>
      <point x="104" y="494" type="line"/>
      <point x="150" y="517"/>
      <point x="202" y="536"/>
      <point x="269" y="536" type="curve" smooth="yes"/>
      <point x="384" y="536"/>
      <point x="443" y="492"/>
      <point x="443" y="363" type="curve" smooth="yes"/>
    </contour>
    <contour>
      <point x="421" y="118" type="curve"/>
      <point x="421" y="253" type="line"/>
      <point x="377" y="278"/>
      <point x="321" y="298"/>
      <point x="249" y="298" type="curve" smooth="yes"/>
      <point x="152" y="298"/>
      <point x="77" y="248"/>
      <point x="77" y="147" type="curve" smooth="yes"/>
      <point x="77" y="42"/>
      <point x="155" y="8"/>
      <point x="237" y="8" type="curve" smooth="yes"/>
      <point x="308" y="8"/>
      <point x="382" y="51"/>
    </contour>
  </outline>
</glyph>
<glyph name="c" format="1">
  <advance width="489"/>
  <unicode hex="0063"/>
  <outline>
    <contour>
      <point x="429" y="48" type="line"/>
      <point x="391" y="12"/>
      <point x="337" y="-11"/>
      <point x="271" y="-11" type="curve" smooth="yes"/>
      <point x="163" y="-11"/>
      <point x="59" y="75"/>
      <point x="59" y="262" type="curve" smooth="yes"/>
      <point x="59" y="446"/>
      <point x="166" y="536"/>
      <point x="273" y="536" type="curve" smooth="yes"/>
      <point x="347" y="536"/>
      <point x="390" y="512"/>
      <point x="427" y="481" type="curve"/>
      <point x="415" y="465" type="line"/>
      <point x="378" y="496"/>
      <point x="340" y="517"/>
      <point x="272" y="517" type="curve" smooth="yes"/>
      <point x="174" y="517"/>
      <point x="81" y="431"/>
      <point x="81" y="264" type="curve" smooth="yes"/>
      <point x="81" y="93"/>
      <point x="171" y="8"/>
      <point x="272" y="8" type="curve" smooth="yes"/>
      <point x="332" y="8"/>
      <point x="381" y="29"/>
      <point x="417" y="62" type="curve"/>
    </contour>
  </outline>
</glyph>
<glyph name="e" format="1">
  <advance width="537"/>
  <unicode hex="0065"/>
  <outline>
    <contour>
      <point x="472" y="270" type="curve" smooth="yes"/>
      <point x="472" y="266"/>
      <point x="472" y="263"/>
      <point x="471" y="259" type="curve"/>
      <point x="80" y="259" type="line"/>
      <point x="82" y="98"/>
      <point x="162" y="8"/>
      <point x="267" y="8" type="curve" smooth="yes"/>
      <point x="341" y="8"/>
      <point x="385" y="25"/>
      <point x="433" y="53" type="curve"/>
      <point x="442" y="37" type="line"/>
      <point x="391" y="7"/>
      <point x="343" y="-11"/>
      <point x="265" y="-11" type="curve" smooth="yes"/>
      <point x="157" y="-11"/>
      <point x="59" y="80"/>
      <point x="59" y="263" type="curve" smooth="yes"/>
      <point x="59" y="437"/>
      <point x="152" y="536"/>
      <point x="267" y="536" type="curve" smooth="yes"/>
      <point x="386" y="536"/>
      <point x="472" y="440"/>
    </contour>
    <contour>
      <point x="451" y="277" type="line"/>
      <point x="448" y="433"/>
      <point x="373" y="517"/>
      <point x="267" y="517" type="curve" smooth="yes"/>
      <point x="166" y="517"/>
      <point x="84" y="433"/>
      <point x="80" y="277" type="curve"/>
    </contour>
  </outline>
</glyph>
<glyph name="f" format="1">
  <advance width="332"/>
  <unicode hex="0066"/>
  <outline>
    <contour>
      <point x="298" y="691" type="line"/>
      <point x="287" y="696"/>
      <point x="262" y="703"/>
      <point x="234" y="703" type="curve" smooth="yes"/>
      <point x="189" y="703"/>
      <point x="152" y="683"/>
      <point x="152" y="608" type="curve" smooth="yes"/>
      <point x="152" y="525" type="line"/>
      <point x="286" y="525" type="line"/>
      <point x="286" y="506" type="line"/>
      <point x="152" y="506" type="line"/>
      <point x="152" y="0" type="line"/>
      <point x="130" y="0" type="line"/>
      <point x="130" y="506" type="line"/>
      <point x="48" y="506" type="line"/>
      <point x="48" y="525" type="line"/>
      <point x="130" y="525" type="line"/>
      <point x="130" y="606" type="line" smooth="yes"/>
      <point x="130" y="695"/>
      <point x="176" y="724"/>
      <point x="232" y="724" type="curve" smooth="yes"/>
      <point x="265" y="724"/>
      <point x="285" y="718"/>
      <point x="298" y="713" type="curve"/>
    </contour>
  </outline>
</glyph>
<glyph name="i" format="1">
  <advance width="208"/>
  <unicode hex="0069"/>
  <outline>
    <contour>
      <point x="124" y="687" type="curve" smooth="yes"/>
      <point x="124" y="677"/>
      <point x="115" y="668"/>
      <point x="106" y="668" type="curve" smooth="yes"/>
      <point x="94" y="668"/>
      <point x="86" y="677"/>
      <point x="86" y="687" type="curve" smooth="yes"/>
      <point x="86" y="698"/>
      <point x="94" y="706"/>
      <point x="106" y="706" type="curve" smooth="yes"/>
      <point x="115" y="706"/>
      <point x="124" y="698"/>
    </contour>
    <contour>
      <point x="115" y="0" type="line"/>
      <point x="93" y="0" type="line"/>
      <point x="93" y="525" type="line"/>
      <point x="115" y="525" type="line"/>
    </contour>
  </outline>
</glyph>
<glyph name="j" format="1">
  <advance width="208"/>
  <unicode hex="006A"/>
  <outline>
    <contour>
      <point x="124" y="687" type="curve" smooth="yes"/>
      <point x="124" y="677"/>
      <point x="115" y="668"/>
      <point x="106" y="668" type="curve" smooth="yes"/>
      <point x="94" y="668"/>
      <point x="86" y="677"/>
      <point x="86" y="687" type="curve" smooth="yes"/>
      <point x="86" y="698"/>
      <point x="94" y="706"/>
      <point x="106" y="706" type="curve" smooth="yes"/>
      <point x="115" y="706"/>
      <point x="124" y="698"/>
    </contour>
    <contour>
      <point x="115" y="-12" type="line" smooth="yes"/>
      <point x="115" y="-121"/>
      <point x="92" y="-170"/>
      <point x="7" y="-195" type="curve"/>
      <point x="-3" y="-177" type="line"/>
      <point x="73" y="-155"/>
      <point x="93" y="-114"/>
      <point x="93" y="-12" type="curve" smooth="yes"/>
      <point x="93" y="525" type="line"/>
      <point x="115" y="525" type="line"/>
    </contour>
  </outline>
</glyph>
<glyph name="k" format="1">
  <advance width="486"/>
  <unicode hex="006B"/>
  <outline>
    <contour>
      <point x="442" y="0" type="line"/>
      <point x="419" y="0" type="line"/>
      <point x="231" y="302" type="line"/>
      <point x="110" y="143" type="line"/>
      <point x="110" y="0" type="line"/>
      <point x="88" y="0" type="line"/>
      <point x="88" y="717" type="line"/>
      <point x="110" y="729" type="line"/>
      <point x="110" y="173" type="line"/>
      <point x="378" y="525" type="line"/>
      <point x="402" y="525" type="line"/>
      <point x="244" y="319" type="line"/>
    </contour>
  </outline>
</glyph>
<glyph name="l" format="1">
  <advance width="208"/>
  <unicode hex="006C"/>
  <outline>
    <contour>
      <point x="115" y="0" type="line"/>
      <point x="93" y="0" type="line"/>
      <point x="93" y="717" type="line"/>
      <point x="115" y="729" type="line"/>
    </contour>
  </outline>
</glyph>
<glyph name="m" format="1">
  <advance width="899"/>
  <unicode hex="006D"/>
  <outline>
    <contour>
      <point x="830" y="0" type="line"/>
      <point x="808" y="0" type="line"/>
      <point x="808" y="320" type="line" smooth="yes"/>
      <point x="808" y="461"/>
      <point x="741" y="517"/>
      <point x="643" y="517" type="curve" smooth="yes"/>
      <point x="565" y="517"/>
      <point x="470" y="474"/>
      <point x="470" y="321" type="curve" smooth="yes"/>
      <point x="470" y="0" type="line"/>
      <point x="448" y="0" type="line"/>
      <point x="448" y="321" type="line" smooth="yes"/>
      <point x="448" y="463"/>
      <point x="380" y="517"/>
      <point x="283" y="517" type="curve" smooth="yes"/>
      <point x="205" y="517"/>
      <point x="110" y="474"/>
      <point x="110" y="321" type="curve" smooth="yes"/>
      <point x="110" y="0" type="line"/>
      <point x="88" y="0" type="line"/>
      <point x="88" y="525" type="line"/>
      <point x="110" y="525" type="line"/>
      <point x="110" y="411" type="line"/>
      <point x="129" y="494"/>
      <point x="203" y="536"/>
      <point x="286" y="536" type="curve" smooth="yes"/>
      <point x="385" y="536"/>
      <point x="448" y="478"/>
      <point x="461" y="388" type="curve"/>
      <point x="481" y="490"/>
      <point x="557" y="536"/>
      <point x="646" y="536" type="curve" smooth="yes"/>
      <point x="753" y="536"/>
      <point x="830" y="475"/>
      <point x="830" y="324" type="curve" smooth="yes"/>
    </contour>
  </outline>
</glyph>
<glyph name="n" format="1">
  <advance width="564"/>
  <unicode hex="006E"/>
  <outline>
    <contour>
      <point x="480" y="0" type="line"/>
      <point x="458" y="0" type="line"/>
      <point x="458" y="320" type="line" smooth="yes"/>
      <point x="458" y="459"/>
      <point x="392" y="517"/>
      <point x="288" y="517" type="curve" smooth="yes"/>
      <point x="207" y="517"/>
      <point x="110" y="473"/>
      <point x="110" y="321" type="curve" smooth="yes"/>
      <point x="110" y="0" type="line"/>
      <point x="88" y="0" type="line"/>
      <point x="88" y="525" type="line"/>
      <point x="110" y="525" type="line"/>
      <point x="110" y="411" type="line"/>
      <point x="130" y="494"/>
      <point x="203" y="536"/>
      <point x="292" y="536" type="curve" smooth="yes"/>
      <point x="404" y="536"/>
      <point x="480" y="475"/>
      <point x="480" y="324" type="curve" smooth="yes"/>
    </contour>
  </outline>
</glyph>
<glyph name="o" format="1">
  <advance width="568"/>
  <unicode hex="006F"/>
  <outline>
    <contour>
      <point x="509" y="263" type="curve" smooth="yes"/>
      <point x="509" y="86"/>
      <point x="409" y="-11"/>
      <point x="284" y="-11" type="curve" smooth="yes"/>
      <point x="159" y="-11"/>
      <point x="59" y="86"/>
      <point x="59" y="263" type="curve" smooth="yes"/>
      <point x="59" y="438"/>
      <point x="159" y="536"/>
      <point x="284" y="536" type="curve" smooth="yes"/>
      <point x="409" y="536"/>
      <point x="509" y="438"/>
    </contour>
    <contour>
      <point x="487" y="263" type="curve" smooth="yes"/>
      <point x="487" y="428"/>
      <point x="398" y="517"/>
      <point x="284" y="517" type="curve" smooth="yes"/>
      <point x="170" y="517"/>
      <point x="81" y="428"/>
      <point x="81" y="263" type="curve" smooth="yes"/>
      <point x="81" y="98"/>
      <point x="170" y="8"/>
      <point x="284" y="8" type="curve" smooth="yes"/>
      <point x="398" y="8"/>
      <point x="487" y="98"/>
    </contour>
  </outline>
</glyph>
<glyph name="p" format="1">
  <advance width="549"/>
  <unicode hex="0070"/>
  <outline>
    <contour>
      <point x="88" y="525" type="line"/>
      <point x="110" y="525" type="line"/>
      <point x="110" y="434" type="line"/>
      <point x="153" y="492"/>
      <point x="214" y="536"/>
      <point x="292" y="536" type="curve" smooth="yes"/>
      <point x="409" y="536"/>
      <point x="490" y="456"/>
      <point x="490" y="265" type="curve" smooth="yes"/>
      <point x="490" y="73"/>
      <point x="408" y="-11"/>
      <point x="290" y="-11" type="curve" smooth="yes"/>
      <point x="215" y="-11"/>
      <point x="153" y="31"/>
      <point x="110" y="89" type="curve"/>
      <point x="110" y="-175" type="line"/>
      <point x="88" y="-187" type="line"/>
    </contour>
    <contour>
      <point x="110" y="406" type="curve"/>
      <point x="110" y="120" type="line"/>
      <point x="150" y="56"/>
      <point x="216" y="8"/>
      <point x="288" y="8" type="curve" smooth="yes"/>
      <point x="400" y="8"/>
      <point x="468" y="87"/>
      <point x="468" y="265" type="curve" smooth="yes"/>
      <point x="468" y="440"/>
      <point x="398" y="517"/>
      <point x="288" y="517" type="curve" smooth="yes"/>
      <point x="217" y="517"/>
      <point x="152" y="471"/>
    </contour>
  </outline>
</glyph>
<glyph name="q" format="1">
  <advance width="549"/>
  <unicode hex="0071"/>
  <outline>
    <contour>
      <point x="461" y="-175" type="line"/>
      <point x="439" y="-187" type="line"/>
      <point x="439" y="91" type="line"/>
      <point x="396" y="33"/>
      <point x="335" y="-11"/>
      <point x="257" y="-11" type="curve" smooth="yes"/>
      <point x="140" y="-11"/>
      <point x="59" y="69"/>
      <point x="59" y="260" type="curve" smooth="yes"/>
      <point x="59" y="452"/>
      <point x="141" y="536"/>
      <point x="259" y="536" type="curve" smooth="yes"/>
      <point x="334" y="536"/>
      <point x="396" y="494"/>
      <point x="439" y="436" type="curve"/>
      <point x="439" y="525" type="line"/>
      <point x="461" y="525" type="line"/>
    </contour>
    <contour>
      <point x="439" y="119" type="curve"/>
      <point x="439" y="405" type="line"/>
      <point x="399" y="469"/>
      <point x="333" y="517"/>
      <point x="261" y="517" type="curve" smooth="yes"/>
      <point x="149" y="517"/>
      <point x="81" y="438"/>
      <point x="81" y="260" type="curve" smooth="yes"/>
      <point x="81" y="85"/>
      <point x="151" y="8"/>
      <point x="261" y="8" type="curve" smooth="yes"/>
      <point x="332" y="8"/>
      <point x="397" y="54"/>
    </contour>
  </outline>
</glyph>
<glyph name="r" format="1">
  <advance width="387"/>
  <unicode hex="0072"/>
  <outline>
    <contour>
      <point x="356" y="520" type="curve"/>
      <point x="347" y="500" type="line"/>
      <point x="327" y="508"/>
      <point x="306" y="515"/>
      <point x="265" y="515" type="curve" smooth="yes"/>
      <point x="201" y="515"/>
      <point x="110" y="470"/>
      <point x="110" y="322" type="curve" smooth="yes"/>
      <point x="110" y="0" type="line"/>
      <point x="88" y="0" type="line"/>
      <point x="88" y="525" type="line"/>
      <point x="110" y="525" type="line"/>
      <point x="110" y="410" type="line"/>
      <point x="127" y="493"/>
      <point x="199" y="536"/>
      <point x="269" y="536" type="curve" smooth="yes"/>
      <point x="309" y="536"/>
      <point x="338" y="529"/>
    </contour>
  </outline>
</glyph>
<glyph name="s" format="1">
  <advance width="435"/>
  <unicode hex="0073"/>
  <outline>
    <contour>
      <point x="373" y="123" type="curve" smooth="yes"/>
      <point x="373" y="37"/>
      <point x="308" y="-11"/>
      <point x="210" y="-11" type="curve" smooth="yes"/>
      <point x="142" y="-11"/>
      <point x="91" y="12"/>
      <point x="49" y="45" type="curve"/>
      <point x="60" y="61" type="line"/>
      <point x="101" y="30"/>
      <point x="148" y="8"/>
      <point x="210" y="8" type="curve" smooth="yes"/>
      <point x="299" y="8"/>
      <point x="352" y="50"/>
      <point x="352" y="123" type="curve" smooth="yes"/>
      <point x="352" y="186"/>
      <point x="323" y="217"/>
      <point x="213" y="263" type="curve" smooth="yes"/>
      <point x="102" y="309"/>
      <point x="65" y="339"/>
      <point x="65" y="416" type="curve" smooth="yes"/>
      <point x="65" y="483"/>
      <point x="118" y="536"/>
      <point x="210" y="536" type="curve" smooth="yes"/>
      <point x="283" y="536"/>
      <point x="331" y="514"/>
      <point x="363" y="488" type="curve"/>
      <point x="351" y="472" type="line"/>
      <point x="319" y="498"/>
      <point x="274" y="517"/>
      <point x="209" y="517" type="curve" smooth="yes"/>
      <point x="132" y="517"/>
      <point x="86" y="471"/>
      <point x="86" y="417" type="curve" smooth="yes"/>
      <point x="86" y="352"/>
      <point x="117" y="327"/>
      <point x="223" y="282" type="curve" smooth="yes"/>
      <point x="337" y="233"/>
      <point x="373" y="203"/>
    </contour>
  </outline>
</glyph>
<glyph name="t" format="1">
  <advance width="330"/>
  <unicode hex="0074"/>
  <outline>
    <contour>
      <point x="276" y="32" type="curve"/>
      <point x="274" y="11" type="line"/>
      <point x="249" y="-2"/>
      <point x="221" y="-8"/>
      <point x="184" y="-8" type="curve" smooth="yes"/>
      <point x="131" y="-8"/>
      <point x="104" y="24"/>
      <point x="104" y="82" type="curve" smooth="yes"/>
      <point x="104" y="507" type="line"/>
      <point x="34" y="507" type="line"/>
      <point x="34" y="525" type="line"/>
      <point x="104" y="525" type="line"/>
      <point x="104" y="717" type="line"/>
      <point x="126" y="729" type="line"/>
      <point x="126" y="525" type="line"/>
      <point x="270" y="525" type="line"/>
      <point x="270" y="507" type="line"/>
      <point x="126" y="507" type="line"/>
      <point x="126" y="84" type="line" smooth="yes"/>
      <point x="126" y="38"/>
      <point x="147" y="12"/>
      <point x="191" y="12" type="curve" smooth="yes"/>
      <point x="224" y="12"/>
      <point x="251" y="20"/>
    </contour>
  </outline>
</glyph>
<glyph name="u" format="1">
  <advance width="564"/>
  <unicode hex="0075"/>
  <outline>
    <contour>
      <point x="84" y="525" type="line"/>
      <point x="106" y="525" type="line"/>
      <point x="106" y="205" type="line" smooth="yes"/>
      <point x="106" y="66"/>
      <point x="172" y="8"/>
      <point x="276" y="8" type="curve" smooth="yes"/>
      <point x="357" y="8"/>
      <point x="454" y="52"/>
      <point x="454" y="204" type="curve" smooth="yes"/>
      <point x="454" y="525" type="line"/>
      <point x="476" y="525" type="line"/>
      <point x="476" y="0" type="line"/>
      <point x="454" y="0" type="line"/>
      <point x="454" y="114" type="line"/>
      <point x="434" y="31"/>
      <point x="361" y="-11"/>
      <point x="272" y="-11" type="curve" smooth="yes"/>
      <point x="160" y="-11"/>
      <point x="84" y="50"/>
      <point x="84" y="201" type="curve" smooth="yes"/>
    </contour>
  </outline>
</glyph>
<glyph name="v" format="1">
  <advance width="499"/>
  <unicode hex="0076"/>
  <outline>
    <contour>
      <point x="453" y="525" type="line"/>
      <point x="259" y="-2" type="line"/>
      <point x="240" y="-2" type="line"/>
      <point x="46" y="525" type="line"/>
      <point x="69" y="525" type="line"/>
      <point x="250" y="26" type="line"/>
      <point x="430" y="525" type="line"/>
    </contour>
  </outline>
</glyph>
<glyph name="w" format="1">
  <advance width="713"/>
  <unicode hex="0077"/>
  <outline>
    <contour>
      <point x="664" y="525" type="line"/>
      <point x="526" y="-2" type="line"/>
      <point x="506" y="-2" type="line"/>
      <point x="356" y="493" type="line"/>
      <point x="208" y="-2" type="line"/>
      <point x="188" y="-2" type="line"/>
      <point x="49" y="525" type="line"/>
      <point x="71" y="525" type="line"/>
      <point x="198" y="33" type="line"/>
      <point x="346" y="527" type="line"/>
      <point x="366" y="527" type="line"/>
      <point x="516" y="33" type="line"/>
      <point x="642" y="525" type="line"/>
    </contour>
  </outline>
</glyph>
<glyph name="x" format="1">
  <advance width="483"/>
  <unicode hex="0078"/>
  <outline>
    <contour>
      <point x="241" y="294" type="line"/>
      <point x="384" y="525" type="line"/>
      <point x="406" y="525" type="line"/>
      <point x="252" y="277" type="line"/>
      <point x="424" y="0" type="line"/>
      <point x="401" y="0" type="line"/>
      <point x="241" y="258" type="line"/>
      <point x="81" y="0" type="line"/>
      <point x="59" y="0" type="line"/>
      <point x="230" y="276" type="line"/>
      <point x="76" y="525" type="line"/>
      <point x="99" y="525" type="line"/>
    </contour>
  </outline>
</glyph>
<glyph name="y" format="1">
  <advance width="501"/>
  <unicode hex="0079"/>
  <outline>
    <contour>
      <point x="239" y="2" type="line"/>
      <point x="46" y="525" type="line"/>
      <point x="68" y="525" type="line"/>
      <point x="250" y="30" type="line"/>
      <point x="433" y="525" type="line"/>
      <point x="455" y="525" type="line"/>
      <point x="192" y="-185" type="line"/>
      <point x="170" y="-185" type="line"/>
    </contour>
  </outline>
</glyph>
<glyph name="z" format="1">
  <advance width="490"/>
  <unicode hex="007A"/>
  <outline>
    <contour>
      <point x="421" y="0" type="line"/>
      <point x="60" y="0" type="line"/>
      <point x="60" y="16" type="line"/>
      <point x="396" y="507" type="line"/>
      <point x="91" y="507" type="line"/>
      <point x="91" y="525" type="line"/>
      <point x="421" y="525" type="line"/>
      <point x="421" y="509" type="line"/>
      <point x="85" y="18" type="line"/>
      <point x="421" y="18" type="line"/>
    </contour>
  </outline>
</glyph>
<glyph name="braceleft" format="1">
  <advance width="361"/>
  <unicode hex="007B"/>
  <outline>
    <contour>
      <point x="307" y="-109" type="line"/>
      <point x="205" y="-101"/>
      <point x="151" y="-55"/>
      <point x="151" y="75" type="curve" smooth="yes"/>
      <point x="151" y="215" type="line" smooth="yes"/>
      <point x="151" y="249"/>
      <point x="133" y="286"/>
      <point x="85" y="286" type="curve" smooth="yes"/>
      <point x="52" y="286" type="line"/>
      <point x="52" y="306" type="line"/>
      <point x="85" y="306" type="line" smooth="yes"/>
      <point x="133" y="306"/>
      <point x="151" y="343"/>
      <point x="151" y="377" type="curve" smooth="yes"/>
      <point x="151" y="518" type="line" smooth="yes"/>
      <point x="151" y="648"/>
      <point x="205" y="693"/>
      <point x="307" y="702" type="curve"/>
      <point x="307" y="684" type="line"/>
      <point x="218" y="674"/>
      <point x="172" y="637"/>
      <point x="172" y="520" type="curve" smooth="yes"/>
      <point x="172" y="384" type="line" smooth="yes"/>
      <point x="172" y="340"/>
      <point x="155" y="307"/>
      <point x="114" y="296" type="curve"/>
      <point x="155" y="285"/>
      <point x="172" y="251"/>
      <point x="172" y="207" type="curve" smooth="yes"/>
      <point x="172" y="73" type="line" smooth="yes"/>
      <point x="172" y="-44"/>
      <point x="218" y="-81"/>
      <point x="307" y="-91" type="curve"/>
    </contour>
  </outline>
</glyph>
<glyph name="braceright" format="1">
  <advance width="361"/>
  <unicode hex="007D"/>
  <outline>
    <contour>
      <point x="309" y="287" type="line"/>
      <point x="277" y="287" type="line" smooth="yes"/>
      <point x="229" y="287"/>
      <point x="211" y="250"/>
      <point x="211" y="215" type="curve" smooth="yes"/>
      <point x="211" y="75" type="line" smooth="yes"/>
      <point x="211" y="-55"/>
      <point x="157" y="-101"/>
      <point x="55" y="-109" type="curve"/>
      <point x="55" y="-91" type="line"/>
      <point x="144" y="-81"/>
      <point x="190" y="-44"/>
      <point x="190" y="73" type="curve" smooth="yes"/>
      <point x="190" y="209" type="line" smooth="yes"/>
      <point x="190" y="252"/>
      <point x="207" y="286"/>
      <point x="247" y="297" type="curve"/>
      <point x="207" y="308"/>
      <point x="190" y="342"/>
      <point x="190" y="385" type="curve" smooth="yes"/>
      <point x="190" y="520" type="line" smooth="yes"/>
      <point x="190" y="637"/>
      <point x="144" y="674"/>
      <point x="55" y="684" type="curve"/>
      <point x="55" y="702" type="line"/>
      <point x="157" y="693"/>
      <point x="211" y="648"/>
      <point x="211" y="518" type="curve" smooth="yes"/>
      <point x="211" y="378" type="line" smooth="yes"/>
      <point x="211" y="343"/>
      <point x="229" y="307"/>
      <point x="277" y="307" type="curve" smooth="yes"/>
      <point x="309" y="307" type="line"/>
    </contour>
  </outline>
</glyph>
<glyph name="asciitilde" format="1">
  <advance width="528"/>
  <unicode hex="007E"/>
  <outline>
    <contour>
      <point x="461" y="407" type="line"/>
      <point x="432" y="349"/>
      <point x="401" y="323"/>
      <point x="355" y="323" type="curve" smooth="yes"/>
      <point x="321" y="323"/>
      <point x="290" y="341"/>
      <point x="261" y="360" type="curve" smooth="yes"/>
      <point x="232" y="378"/>
      <point x="204" y="397"/>
      <point x="173" y="397" type="curve" smooth="yes"/>
      <point x="136" y="397"/>
      <point x="111" y="376"/>
      <point x="86" y="326" type="curve"/>
      <point x="66" y="335" type="line"/>
      <point x="95" y="393"/>
      <point x="126" y="419"/>
      <point x="173" y="419" type="curve" smooth="yes"/>
      <point x="209" y="419"/>
      <point x="237" y="402"/>
      <point x="270" y="381" type="curve" smooth="yes"/>
      <point x="299" y="363"/>
      <point x="326" y="345"/>
      <point x="355" y="345" type="curve" smooth="yes"/>
      <point x="391" y="345"/>
      <point x="416" y="366"/>
      <point x="441" y="416" type="curve"/>
    </contour>
  </outline>
</glyph>
<glyph name="exclamdown" format="1">
  <advance width="229"/>
  <unicode hex="00A1"/>
  <outline>
    <contour>
      <point x="92" y="680" type="curve" smooth="yes"/>
      <point x="92" y="693"/>
      <point x="103" y="703"/>
      <point x="115" y="703" type="curve" smooth="yes"/>
      <point x="128" y="703"/>
      <point x="138" y="693"/>
      <point x="138" y="680" type="curve" smooth="yes"/>
      <point x="138" y="667"/>
      <point x="128" y="656"/>
      <point x="115" y="656" type="curve" smooth="yes"/>
      <point x="103" y="656"/>
      <point x="92" y="667"/>
    </contour>
    <contour>
      <point x="104" y="329" type="line"/>
      <point x="108" y="556" type="line"/>
      <point x="121" y="556" type="line"/>
      <point x="125" y="329" type="line"/>
      <point x="125" y="0" type="line"/>
      <point x="104" y="0" type="line"/>
    </contour>
  </outline>
</glyph>
<glyph name="cent" format="1">
  <advance width="489"/>
  <unicode hex="00A2"/>
  <outline>
    <contour>
      <point x="281" y="83" type="curve"/>
      <point x="281" y="-11" type="line"/>
      <point x="260" y="-11" type="line"/>
      <point x="260" y="83" type="line"/>
      <point x="156" y="89"/>
      <point x="59" y="175"/>
      <point x="59" y="356" type="curve" smooth="yes"/>
      <point x="59" y="533"/>
      <point x="158" y="623"/>
      <point x="260" y="630" type="curve"/>
      <point x="260" y="713" type="line"/>
      <point x="281" y="713" type="line"/>
      <point x="281" y="630" type="line"/>
      <point x="350" y="628"/>
      <point x="391" y="605"/>
      <point x="427" y="575" type="curve"/>
      <point x="415" y="559" type="line"/>
      <point x="378" y="590"/>
      <point x="340" y="611"/>
      <point x="272" y="611" type="curve" smooth="yes"/>
      <point x="174" y="611"/>
      <point x="81" y="525"/>
      <point x="81" y="358" type="curve" smooth="yes"/>
      <point x="81" y="187"/>
      <point x="171" y="102"/>
      <point x="272" y="102" type="curve" smooth="yes"/>
      <point x="332" y="102"/>
      <point x="381" y="123"/>
      <point x="417" y="156" type="curve"/>
      <point x="429" y="142" type="line"/>
      <point x="393" y="108"/>
      <point x="343" y="85"/>
    </contour>
  </outline>
</glyph>
<glyph name="sterling" format="1">
  <advance width="561"/>
  <unicode hex="00A3"/>
  <outline>
    <contour>
      <point x="195" y="336" type="curve"/>
      <point x="367" y="336" type="line"/>
      <point x="367" y="316" type="line"/>
      <point x="200" y="316" type="line"/>
      <point x="204" y="299"/>
      <point x="206" y="281"/>
      <point x="206" y="260" type="curve" smooth="yes"/>
      <point x="206" y="158"/>
      <point x="170" y="88"/>
      <point x="106" y="20" type="curve"/>
      <point x="509" y="20" type="line"/>
      <point x="509" y="0" type="line"/>
      <point x="75" y="0" type="line"/>
      <point x="75" y="19" type="line"/>
      <point x="146" y="90"/>
      <point x="184" y="155"/>
      <point x="184" y="260" type="curve" smooth="yes"/>
      <point x="184" y="280"/>
      <point x="182" y="299"/>
      <point x="178" y="316" type="curve"/>
      <point x="76" y="316" type="line"/>
      <point x="76" y="336" type="line"/>
      <point x="172" y="336" type="line"/>
      <point x="164" y="363"/>
      <point x="153" y="388"/>
      <point x="142" y="412" type="curve" smooth="yes"/>
      <point x="125" y="451"/>
      <point x="108" y="490"/>
      <point x="108" y="541" type="curve" smooth="yes"/>
      <point x="108" y="645"/>
      <point x="186" y="711"/>
      <point x="307" y="711" type="curve" smooth="yes"/>
      <point x="379" y="711"/>
      <point x="439" y="688"/>
      <point x="491" y="646" type="curve"/>
      <point x="478" y="630" type="line"/>
      <point x="429" y="669"/>
      <point x="373" y="691"/>
      <point x="306" y="691" type="curve" smooth="yes"/>
      <point x="194" y="691"/>
      <point x="130" y="630"/>
      <point x="130" y="542" type="curve" smooth="yes"/>
      <point x="130" y="494"/>
      <point x="145" y="457"/>
      <point x="162" y="420" type="curve" smooth="yes"/>
      <point x="174" y="393"/>
      <point x="187" y="366"/>
    </contour>
  </outline>
</glyph>
<glyph name="yen" format="1">
  <advance width="609"/>
  <unicode hex="00A5"/>
  <outline>
    <contour>
      <point x="553" y="700" type="line"/>
      <point x="315" y="294" type="line"/>
      <point x="315" y="179" type="line"/>
      <point x="458" y="179" type="line"/>
      <point x="458" y="159" type="line"/>
      <point x="315" y="159" type="line"/>
      <point x="315" y="0" type="line"/>
      <point x="293" y="0" type="line"/>
      <point x="293" y="159" type="line"/>
      <point x="149" y="159" type="line"/>
      <point x="149" y="179" type="line"/>
      <point x="293" y="179" type="line"/>
      <point x="293" y="294" type="line"/>
      <point x="56" y="700" type="line"/>
      <point x="81" y="700" type="line"/>
      <point x="305" y="317" type="line"/>
      <point x="528" y="700" type="line"/>
    </contour>
  </outline>
</glyph>
<glyph name="section" format="1">
  <advance width="595"/>
  <unicode hex="00A7"/>
  <outline>
    <contour>
      <point x="224" y="459" type="curve"/>
      <point x="149" y="492"/>
      <point x="128" y="528"/>
      <point x="128" y="580" type="curve" smooth="yes"/>
      <point x="128" y="658"/>
      <point x="191" y="711"/>
      <point x="296" y="711" type="curve" smooth="yes"/>
      <point x="366" y="711"/>
      <point x="427" y="690"/>
      <point x="475" y="655" type="curve"/>
      <point x="464" y="638" type="line"/>
      <point x="416" y="672"/>
      <point x="359" y="691"/>
      <point x="293" y="691" type="curve" smooth="yes"/>
      <point x="203" y="691"/>
      <point x="150" y="647"/>
      <point x="150" y="582" type="curve" smooth="yes"/>
      <point x="150" y="517"/>
      <point x="191" y="486"/>
      <point x="325" y="444" type="curve" smooth="yes"/>
      <point x="485" y="394"/>
      <point x="534" y="352"/>
      <point x="534" y="263" type="curve" smooth="yes"/>
      <point x="534" y="176"/>
      <point x="466" y="114"/>
      <point x="371" y="88" type="curve"/>
      <point x="446" y="54"/>
      <point x="467" y="19"/>
      <point x="467" y="-33" type="curve" smooth="yes"/>
      <point x="467" y="-111"/>
      <point x="404" y="-164"/>
      <point x="299" y="-164" type="curve" smooth="yes"/>
      <point x="230" y="-164"/>
      <point x="168" y="-143"/>
      <point x="120" y="-108" type="curve"/>
      <point x="131" y="-91" type="line"/>
      <point x="179" y="-125"/>
      <point x="237" y="-144"/>
      <point x="302" y="-144" type="curve" smooth="yes"/>
      <point x="392" y="-144"/>
      <point x="445" y="-100"/>
      <point x="445" y="-35" type="curve" smooth="yes"/>
      <point x="445" y="30"/>
      <point x="403" y="62"/>
      <point x="270" y="104" type="curve" smooth="yes"/>
      <point x="110" y="154"/>
      <point x="61" y="195"/>
      <point x="61" y="284" type="curve" smooth="yes"/>
      <point x="61" y="371"/>
      <point x="130" y="433"/>
    </contour>
    <contour>
      <point x="346" y="99" type="curve"/>
      <point x="445" y="123"/>
      <point x="512" y="183"/>
      <point x="512" y="261" type="curve" smooth="yes"/>
      <point x="512" y="338"/>
      <point x="467" y="380"/>
      <point x="321" y="424" type="curve" smooth="yes"/>
      <point x="294" y="432"/>
      <point x="270" y="440"/>
      <point x="250" y="448" type="curve"/>
      <point x="150" y="425"/>
      <point x="83" y="364"/>
      <point x="83" y="286" type="curve" smooth="yes"/>
      <point x="83" y="209"/>
      <point x="125" y="170"/>
      <point x="274" y="124" type="curve" smooth="yes"/>
      <point x="301" y="116"/>
      <point x="325" y="107"/>
    </contour>
  </outline>
</glyph>
<glyph name="dieresis" format="1">
  <advance width="500"/>
  <unicode hex="00A8"/>
  <outline>
    <contour>
      <point x="347" y="635" type="curve" smooth="yes"/>
      <point x="335" y="635"/>
      <point x="325" y="645"/>
      <point x="325" y="657" type="curve" smooth="yes"/>
      <point x="325" y="669"/>
      <point x="335" y="679"/>
      <point x="347" y="679" type="curve" smooth="yes"/>
      <point x="359" y="679"/>
      <point x="369" y="669"/>
      <point x="369" y="657" type="curve" smooth="yes"/>
      <point x="369" y="645"/>
      <point x="359" y="635"/>
    </contour>
    <contour>
      <point x="154" y="635" type="curve" smooth="yes"/>
      <point x="141" y="635"/>
      <point x="131" y="645"/>
      <point x="131" y="657" type="curve" smooth="yes"/>
      <point x="131" y="669"/>
      <point x="141" y="679"/>
      <point x="154" y="679" type="curve" smooth="yes"/>
      <point x="165" y="679"/>
      <point x="175" y="669"/>
      <point x="175" y="657" type="curve" smooth="yes"/>
      <point x="175" y="645"/>
      <point x="165" y="635"/>
    </contour>
  </outline>
</glyph>
<glyph name="copyright" format="1">
  <advance width="836"/>
  <unicode hex="00A9"/>
  <outline>
    <contour>
      <point x="779" y="350" type="curve" smooth="yes"/>
      <point x="779" y="139"/>
      <point x="626" y="-11"/>
      <point x="418" y="-11" type="curve" smooth="yes"/>
      <point x="210" y="-11"/>
      <point x="57" y="139"/>
      <point x="57" y="350" type="curve" smooth="yes"/>
      <point x="57" y="561"/>
      <point x="210" y="711"/>
      <point x="418" y="711" type="curve" smooth="yes"/>
      <point x="626" y="711"/>
      <point x="779" y="561"/>
    </contour>
    <contour>
      <point x="760" y="350" type="curve" smooth="yes"/>
      <point x="760" y="550"/>
      <point x="615" y="693"/>
      <point x="418" y="693" type="curve" smooth="yes"/>
      <point x="221" y="693"/>
      <point x="76" y="550"/>
      <point x="76" y="350" type="curve" smooth="yes"/>
      <point x="76" y="150"/>
      <point x="221" y="7"/>
      <point x="418" y="7" type="curve" smooth="yes"/>
      <point x="615" y="7"/>
      <point x="760" y="150"/>
    </contour>
    <contour>
      <point x="536" y="187" type="line"/>
      <point x="506" y="154"/>
      <point x="465" y="136"/>
      <point x="418" y="136" type="curve" smooth="yes"/>
      <point x="319" y="136"/>
      <point x="250" y="218"/>
      <point x="250" y="351" type="curve" smooth="yes"/>
      <point x="250" y="480"/>
      <point x="320" y="565"/>
      <point x="418" y="565" type="curve" smooth="yes"/>
      <point x="469" y="565"/>
      <point x="504" y="548"/>
      <point x="531" y="519" type="curve"/>
      <point x="515" y="505" type="line"/>
      <point x="490" y="532"/>
      <point x="463" y="545"/>
      <point x="418" y="545" type="curve" smooth="yes"/>
      <point x="333" y="545"/>
      <point x="271" y="469"/>
      <point x="271" y="351" type="curve" smooth="yes"/>
      <point x="271" y="233"/>
      <point x="333" y="155"/>
      <point x="418" y="155" type="curve" smooth="yes"/>
      <point x="458" y="155"/>
      <point x="493" y="171"/>
      <point x="521" y="202" type="curve"/>
    </contour>
  </outline>
</glyph>
<glyph name="ordfeminine" format="1">
  <advance width="458"/>
  <unicode hex="00AA"/>
  <outline>
    <contour>
      <point x="376" y="282" type="line"/>
      <point x="357" y="282" type="line"/>
      <point x="357" y="352" type="line"/>
      <point x="325" y="306"/>
      <point x="271" y="273"/>
      <point x="208" y="273" type="curve" smooth="yes"/>
      <point x="138" y="273"/>
      <point x="65" y="304"/>
      <point x="65" y="399" type="curve" smooth="yes"/>
      <point x="65" y="496"/>
      <point x="135" y="536"/>
      <point x="222" y="536" type="curve" smooth="yes"/>
      <point x="278" y="536"/>
      <point x="325" y="519"/>
      <point x="357" y="501" type="curve"/>
      <point x="357" y="570" type="line" smooth="yes"/>
      <point x="357" y="661"/>
      <point x="319" y="694"/>
      <point x="236" y="694" type="curve" smooth="yes"/>
      <point x="187" y="694"/>
      <point x="149" y="680"/>
      <point x="111" y="660" type="curve"/>
      <point x="103" y="677" type="line"/>
      <point x="142" y="696"/>
      <point x="183" y="711"/>
      <point x="237" y="711" type="curve" smooth="yes"/>
      <point x="329" y="711"/>
      <point x="376" y="675"/>
      <point x="376" y="572" type="curve" smooth="yes"/>
    </contour>
    <contour>
      <point x="357" y="377" type="curve"/>
      <point x="357" y="483" type="line"/>
      <point x="323" y="503"/>
      <point x="278" y="520"/>
      <point x="221" y="520" type="curve" smooth="yes"/>
      <point x="145" y="520"/>
      <point x="84" y="483"/>
      <point x="84" y="400" type="curve" smooth="yes"/>
      <point x="84" y="318"/>
      <point x="146" y="290"/>
      <point x="211" y="290" type="curve" smooth="yes"/>
      <point x="269" y="290"/>
      <point x="326" y="324"/>
    </contour>
  </outline>
</glyph>
<glyph name="guillemotleft" format="1">
  <advance width="541"/>
  <unicode hex="00AB"/>
  <outline>
    <contour>
      <point x="481" y="0" type="line"/>
      <point x="457" y="0" type="line"/>
      <point x="254" y="261" type="line"/>
      <point x="254" y="263" type="line"/>
      <point x="457" y="525" type="line"/>
      <point x="481" y="525" type="line"/>
      <point x="278" y="262" type="line"/>
    </contour>
    <contour>
      <point x="268" y="0" type="line"/>
      <point x="244" y="0" type="line"/>
      <point x="41" y="261" type="line"/>
      <point x="41" y="263" type="line"/>
      <point x="244" y="525" type="line"/>
      <point x="268" y="525" type="line"/>
      <point x="65" y="262" type="line"/>
    </contour>
  </outline>
</glyph>
<glyph name="degree" format="1">
  <advance width="446"/>
  <unicode hex="00B0"/>
  <outline>
    <contour>
      <point x="382" y="549" type="curve" smooth="yes"/>
      <point x="382" y="455"/>
      <point x="315" y="385"/>
      <point x="223" y="385" type="curve" smooth="yes"/>
      <point x="131" y="385"/>
      <point x="64" y="455"/>
      <point x="64" y="549" type="curve" smooth="yes"/>
      <point x="64" y="640"/>
      <point x="131" y="711"/>
      <point x="223" y="711" type="curve" smooth="yes"/>
      <point x="315" y="711"/>
      <point x="382" y="640"/>
    </contour>
    <contour>
      <point x="363" y="549" type="curve" smooth="yes"/>
      <point x="363" y="630"/>
      <point x="305" y="693"/>
      <point x="223" y="693" type="curve" smooth="yes"/>
      <point x="141" y="693"/>
      <point x="83" y="630"/>
      <point x="83" y="549" type="curve" smooth="yes"/>
      <point x="83" y="465"/>
      <point x="141" y="403"/>
      <point x="223" y="403" type="curve" smooth="yes"/>
      <point x="305" y="403"/>
      <point x="363" y="465"/>
    </contour>
  </outline>
</glyph>
<glyph name="acute" format="1">
  <advance width="500"/>
  <unicode hex="00B4"/>
  <outline>
    <contour>
      <point x="332" y="732" type="line"/>
      <point x="217" y="595" type="line"/>
      <point x="199" y="595" type="line"/>
      <point x="302" y="732" type="line"/>
    </contour>
  </outline>
</glyph>
<glyph name="paragraph" format="1">
  <advance width="634"/>
  <unicode hex="00B6"/>
  <outline>
    <contour>
      <point x="531" y="-185" type="line"/>
      <point x="509" y="-185" type="line"/>
      <point x="509" y="680" type="line"/>
      <point x="378" y="680" type="line"/>
      <point x="378" y="-185" type="line"/>
      <point x="356" y="-185" type="line"/>
      <point x="356" y="262" type="line"/>
      <point x="290" y="262" type="line" smooth="yes"/>
      <point x="135" y="262"/>
      <point x="49" y="350"/>
      <point x="49" y="485" type="curve" smooth="yes"/>
      <point x="49" y="625"/>
      <point x="150" y="700"/>
      <point x="291" y="700" type="curve" smooth="yes"/>
      <point x="531" y="700" type="line"/>
    </contour>
    <contour>
      <point x="356" y="282" type="line"/>
      <point x="356" y="680" type="line"/>
      <point x="293" y="680" type="line" smooth="yes"/>
      <point x="156" y="680"/>
      <point x="71" y="614"/>
      <point x="71" y="486" type="curve" smooth="yes"/>
      <point x="71" y="363"/>
      <point x="142" y="282"/>
      <point x="292" y="282" type="curve" smooth="yes"/>
    </contour>
  </outline>
</glyph>
<glyph name="cedilla" format="1">
  <advance width="500"/>
  <unicode hex="00B8"/>
  <outline>
    <contour>
      <point x="347" y="-95" type="curve" smooth="yes"/>
      <point x="347" y="-141"/>
      <point x="310" y="-167"/>
      <point x="252" y="-167" type="curve" smooth="yes"/>
      <point x="212" y="-167"/>
      <point x="179" y="-155"/>
      <point x="153" y="-137" type="curve"/>
      <point x="162" y="-123" type="line"/>
      <point x="189" y="-143"/>
      <point x="219" y="-151"/>
      <point x="250" y="-151" type="curve" smooth="yes"/>
      <point x="301" y="-151"/>
      <point x="329" y="-130"/>
      <point x="329" y="-96" type="curve" smooth="yes"/>
      <point x="329" y="-69"/>
      <point x="309" y="-54"/>
      <point x="282" y="-54" type="curve" smooth="yes"/>
      <point x="260" y="-54"/>
      <point x="240" y="-63"/>
      <point x="227" y="-77" type="curve"/>
      <point x="212" y="-71" type="line"/>
      <point x="243" y="0" type="line"/>
      <point x="262" y="0" type="line"/>
      <point x="236" y="-55" type="line"/>
      <point x="249" y="-46"/>
      <point x="262" y="-40"/>
      <point x="288" y="-40" type="curve" smooth="yes"/>
      <point x="317" y="-40"/>
      <point x="347" y="-57"/>
    </contour>
  </outline>
</glyph>
<glyph name="ordmasculine" format="1">
  <advance width="483"/>
  <unicode hex="00BA"/>
  <outline>
    <contour>
      <point x="422" y="493" type="curve" smooth="yes"/>
      <point x="422" y="352"/>
      <point x="342" y="273"/>
      <point x="241" y="273" type="curve" smooth="yes"/>
      <point x="141" y="273"/>
      <point x="61" y="352"/>
      <point x="61" y="492" type="curve" smooth="yes"/>
      <point x="61" y="633"/>
      <point x="141" y="711"/>
      <point x="242" y="711" type="curve" smooth="yes"/>
      <point x="342" y="711"/>
      <point x="422" y="633"/>
    </contour>
    <contour>
      <point x="403" y="492" type="curve" smooth="yes"/>
      <point x="403" y="623"/>
      <point x="333" y="693"/>
      <point x="242" y="693" type="curve" smooth="yes"/>
      <point x="151" y="693"/>
      <point x="80" y="623"/>
      <point x="80" y="492" type="curve" smooth="yes"/>
      <point x="80" y="362"/>
      <point x="151" y="291"/>
      <point x="242" y="291" type="curve" smooth="yes"/>
      <point x="333" y="291"/>
      <point x="403" y="362"/>
    </contour>
  </outline>
</glyph>
<glyph name="guillemotright" format="1">
  <advance width="541"/>
  <unicode hex="00BB"/>
  <outline>
    <contour>
      <point x="500" y="261" type="line"/>
      <point x="298" y="0" type="line"/>
      <point x="273" y="0" type="line"/>
      <point x="476" y="262" type="line"/>
      <point x="273" y="525" type="line"/>
      <point x="298" y="525" type="line"/>
      <point x="500" y="263" type="line"/>
    </contour>
    <contour>
      <point x="287" y="261" type="line"/>
      <point x="85" y="0" type="line"/>
      <point x="60" y="0" type="line"/>
      <point x="263" y="262" type="line"/>
      <point x="60" y="525" type="line"/>
      <point x="85" y="525" type="line"/>
      <point x="287" y="263" type="line"/>
    </contour>
  </outline>
</glyph>
<glyph name="questiondown" format="1">
  <advance width="554"/>
  <unicode hex="00BF"/>
  <outline>
    <contour>
      <point x="282" y="680" type="curve" smooth="yes"/>
      <point x="282" y="693"/>
      <point x="293" y="703"/>
      <point x="305" y="703" type="curve" smooth="yes"/>
      <point x="318" y="703"/>
      <point x="328" y="693"/>
      <point x="328" y="680" type="curve" smooth="yes"/>
      <point x="328" y="667"/>
      <point x="318" y="656"/>
      <point x="305" y="656" type="curve" smooth="yes"/>
      <point x="293" y="656"/>
      <point x="282" y="667"/>
    </contour>
    <contour>
      <point x="87" y="149" type="curve" smooth="yes"/>
      <point x="87" y="235"/>
      <point x="124" y="269"/>
      <point x="207" y="339" type="curve" smooth="yes"/>
      <point x="277" y="398"/>
      <point x="294" y="421"/>
      <point x="294" y="556" type="curve"/>
      <point x="316" y="556" type="line"/>
      <point x="316" y="420"/>
      <point x="300" y="392"/>
      <point x="218" y="322" type="curve" smooth="yes"/>
      <point x="140" y="255"/>
      <point x="109" y="224"/>
      <point x="109" y="150" type="curve" smooth="yes"/>
      <point x="109" y="66"/>
      <point x="178" y="9"/>
      <point x="281" y="9" type="curve" smooth="yes"/>
      <point x="367" y="9"/>
      <point x="429" y="40"/>
      <point x="482" y="81" type="curve"/>
      <point x="493" y="64" type="line"/>
      <point x="442" y="23"/>
      <point x="375" y="-11"/>
      <point x="280" y="-11" type="curve" smooth="yes"/>
      <point x="165" y="-11"/>
      <point x="87" y="51"/>
    </contour>
  </outline>
</glyph>
<glyph name="Aring" format="1">
  <advance width="654"/>
  <unicode hex="00C5"/>
  <outline>
    <contour>
      <point x="345" y="686" type="curve"/>
      <point x="585" y="0" type="line"/>
      <point x="562" y="0" type="line"/>
      <point x="491" y="204" type="line"/>
      <point x="163" y="204" type="line"/>
      <point x="91" y="0" type="line"/>
      <point x="69" y="0" type="line"/>
      <point x="309" y="686" type="line"/>
      <point x="271" y="694"/>
      <point x="244" y="726"/>
      <point x="244" y="766" type="curve" smooth="yes"/>
      <point x="244" y="812"/>
      <point x="280" y="849"/>
      <point x="327" y="849" type="curve" smooth="yes"/>
      <point x="374" y="849"/>
      <point x="410" y="812"/>
      <point x="410" y="766" type="curve" smooth="yes"/>
      <point x="410" y="726"/>
      <point x="383" y="694"/>
    </contour>
    <contour>
      <point x="327" y="834" type="curve" smooth="yes"/>
      <point x="289" y="834"/>
      <point x="260" y="804"/>
      <point x="260" y="766" type="curve" smooth="yes"/>
      <point x="260" y="728"/>
      <point x="289" y="699"/>
      <point x="327" y="699" type="curve" smooth="yes"/>
      <point x="365" y="699"/>
      <point x="394" y="728"/>
      <point x="394" y="766" type="curve" smooth="yes"/>
      <point x="394" y="804"/>
      <point x="365" y="834"/>
    </contour>
    <contour>
      <point x="484" y="224" type="line"/>
      <point x="327" y="676" type="line"/>
      <point x="170" y="224" type="line"/>
    </contour>
  </outline>
</glyph>
<glyph name="AE" format="1">
  <advance width="939"/>
  <unicode hex="00C6"/>
  <outline>
    <contour>
      <point x="897" y="0" type="line"/>
      <point x="507" y="0" type="line"/>
      <point x="507" y="204" type="line"/>
      <point x="191" y="204" type="line"/>
      <point x="53" y="0" type="line"/>
      <point x="28" y="0" type="line"/>
      <point x="505" y="700" type="line"/>
      <point x="882" y="700" type="line"/>
      <point x="882" y="680" type="line"/>
      <point x="528" y="680" type="line"/>
      <point x="528" y="383" type="line"/>
      <point x="748" y="383" type="line"/>
      <point x="748" y="363" type="line"/>
      <point x="528" y="363" type="line"/>
      <point x="528" y="20" type="line"/>
      <point x="897" y="20" type="line"/>
    </contour>
    <contour>
      <point x="507" y="224" type="line"/>
      <point x="507" y="669" type="line"/>
      <point x="205" y="224" type="line"/>
    </contour>
  </outline>
</glyph>
<glyph name="Ccedilla" format="1">
  <advance width="613"/>
  <unicode hex="00C7"/>
  <outline>
    <contour>
      <point x="345" y="-11" type="curve"/>
      <point x="324" y="-55" type="line"/>
      <point x="337" y="-46"/>
      <point x="350" y="-40"/>
      <point x="376" y="-40" type="curve" smooth="yes"/>
      <point x="405" y="-40"/>
      <point x="435" y="-57"/>
      <point x="435" y="-95" type="curve" smooth="yes"/>
      <point x="435" y="-141"/>
      <point x="398" y="-167"/>
      <point x="340" y="-167" type="curve" smooth="yes"/>
      <point x="300" y="-167"/>
      <point x="267" y="-155"/>
      <point x="241" y="-137" type="curve"/>
      <point x="250" y="-123" type="line"/>
      <point x="277" y="-143"/>
      <point x="307" y="-151"/>
      <point x="338" y="-151" type="curve" smooth="yes"/>
      <point x="389" y="-151"/>
      <point x="417" y="-130"/>
      <point x="417" y="-96" type="curve" smooth="yes"/>
      <point x="417" y="-69"/>
      <point x="397" y="-54"/>
      <point x="370" y="-54" type="curve" smooth="yes"/>
      <point x="348" y="-54"/>
      <point x="328" y="-63"/>
      <point x="315" y="-77" type="curve"/>
      <point x="300" y="-71" type="line"/>
      <point x="327" y="-10" type="line"/>
      <point x="177" y="6"/>
      <point x="74" y="144"/>
      <point x="74" y="350" type="curve" smooth="yes"/>
      <point x="74" y="569"/>
      <point x="191" y="711"/>
      <point x="356" y="711" type="curve" smooth="yes"/>
      <point x="439" y="711"/>
      <point x="496" y="684"/>
      <point x="538" y="640" type="curve"/>
      <point x="524" y="626" type="line"/>
      <point x="482" y="668"/>
      <point x="432" y="691"/>
      <point x="356" y="691" type="curve" smooth="yes"/>
      <point x="205" y="691"/>
      <point x="96" y="558"/>
      <point x="96" y="350" type="curve" smooth="yes"/>
      <point x="96" y="142"/>
      <point x="206" y="9"/>
      <point x="356" y="9" type="curve" smooth="yes"/>
      <point x="424" y="9"/>
      <point x="489" y="34"/>
      <point x="535" y="82" type="curve"/>
      <point x="549" y="68" type="line"/>
      <point x="497" y="15"/>
      <point x="430" y="-11"/>
      <point x="356" y="-11" type="curve" smooth="yes"/>
      <point x="352" y="-11"/>
      <point x="349" y="-11"/>
    </contour>
  </outline>
</glyph>
<glyph name="Eth" format="1">
  <advance width="676"/>
  <unicode hex="00D0"/>
  <outline>
    <contour>
      <point x="598" y="351" type="curve" smooth="yes"/>
      <point x="598" y="104"/>
      <point x="480" y="0"/>
      <point x="285" y="0" type="curve" smooth="yes"/>
      <point x="110" y="0" type="line"/>
      <point x="110" y="354" type="line"/>
      <point x="40" y="354" type="line"/>
      <point x="40" y="375" type="line"/>
      <point x="110" y="375" type="line"/>
      <point x="110" y="700" type="line"/>
      <point x="289" y="700" type="line" smooth="yes"/>
      <point x="483" y="700"/>
      <point x="598" y="593"/>
    </contour>
    <contour>
      <point x="576" y="350" type="curve" smooth="yes"/>
      <point x="576" y="575"/>
      <point x="475" y="680"/>
      <point x="287" y="680" type="curve" smooth="yes"/>
      <point x="131" y="680" type="line"/>
      <point x="131" y="375" type="line"/>
      <point x="290" y="375" type="line"/>
      <point x="290" y="354" type="line"/>
      <point x="131" y="354" type="line"/>
      <point x="131" y="20" type="line"/>
      <point x="288" y="20" type="line" smooth="yes"/>
      <point x="472" y="20"/>
      <point x="576" y="118"/>
    </contour>
  </outline>
</glyph>
<glyph name="Oslash" format="1">
  <advance width="722"/>
  <unicode hex="00D8"/>
  <outline>
    <contour>
      <point x="198" y="43" type="line"/>
      <point x="122" y="102"/>
      <point x="74" y="208"/>
      <point x="74" y="350" type="curve" smooth="yes"/>
      <point x="74" y="575"/>
      <point x="195" y="711"/>
      <point x="361" y="711" type="curve" smooth="yes"/>
      <point x="415" y="711"/>
      <point x="465" y="697"/>
      <point x="506" y="669" type="curve"/>
      <point x="546" y="750" type="line"/>
      <point x="566" y="750" type="line"/>
      <point x="521" y="659" type="line"/>
      <point x="598" y="601"/>
      <point x="648" y="493"/>
      <point x="648" y="350" type="curve" smooth="yes"/>
      <point x="648" y="124"/>
      <point x="527" y="-11"/>
      <point x="361" y="-11" type="curve" smooth="yes"/>
      <point x="306" y="-11"/>
      <point x="256" y="4"/>
      <point x="213" y="32" type="curve"/>
      <point x="173" y="-50" type="line"/>
      <point x="153" y="-50" type="line"/>
    </contour>
    <contour>
      <point x="208" y="63" type="curve"/>
      <point x="497" y="650" type="line"/>
      <point x="457" y="677"/>
      <point x="412" y="691"/>
      <point x="361" y="691" type="curve" smooth="yes"/>
      <point x="210" y="691"/>
      <point x="96" y="564"/>
      <point x="96" y="350" type="curve" smooth="yes"/>
      <point x="96" y="218"/>
      <point x="139" y="119"/>
    </contour>
    <contour>
      <point x="512" y="639" type="curve"/>
      <point x="223" y="52" type="line"/>
      <point x="263" y="24"/>
      <point x="310" y="9"/>
      <point x="362" y="9" type="curve" smooth="yes"/>
      <point x="514" y="9"/>
      <point x="626" y="136"/>
      <point x="626" y="350" type="curve" smooth="yes"/>
      <point x="626" y="483"/>
      <point x="582" y="583"/>
    </contour>
  </outline>
</glyph>
<glyph name="Thorn" format="1">
  <advance width="576"/>
  <unicode hex="00DE"/>
  <outline>
    <contour>
      <point x="528" y="368" type="curve" smooth="yes"/>
      <point x="528" y="233"/>
      <point x="441" y="166"/>
      <point x="289" y="166" type="curve" smooth="yes"/>
      <point x="122" y="166" type="line"/>
      <point x="122" y="0" type="line"/>
      <point x="100" y="0" type="line"/>
      <point x="100" y="700" type="line"/>
      <point x="122" y="700" type="line"/>
      <point x="122" y="562" type="line"/>
      <point x="303" y="562" type="line" smooth="yes"/>
      <point x="439" y="562"/>
      <point x="528" y="509"/>
    </contour>
    <contour>
      <point x="505" y="367" type="curve" smooth="yes"/>
      <point x="505" y="494"/>
      <point x="429" y="542"/>
      <point x="302" y="542" type="curve" smooth="yes"/>
      <point x="122" y="542" type="line"/>
      <point x="122" y="186" type="line"/>
      <point x="289" y="186" type="line" smooth="yes"/>
      <point x="431" y="186"/>
      <point x="505" y="245"/>
    </contour>
  </outline>
</glyph>
<glyph name="germandbls" format="1">
  <advance width="567"/>
  <unicode hex="00DF"/>
  <outline>
    <contour>
      <point x="509" y="219" type="curve" smooth="yes"/>
      <point x="509" y="62"/>
      <point x="402" y="0"/>
      <point x="255" y="0" type="curve" smooth="yes"/>
      <point x="244" y="0" type="line"/>
      <point x="244" y="19" type="line"/>
      <point x="256" y="19" type="line" smooth="yes"/>
      <point x="395" y="19"/>
      <point x="487" y="77"/>
      <point x="487" y="218" type="curve" smooth="yes"/>
      <point x="487" y="335"/>
      <point x="402" y="392"/>
      <point x="259" y="392" type="curve" smooth="yes"/>
      <point x="244" y="392" type="line"/>
      <point x="244" y="412" type="line"/>
      <point x="260" y="412" type="line" smooth="yes"/>
      <point x="378" y="412"/>
      <point x="430" y="470"/>
      <point x="430" y="562" type="curve" smooth="yes"/>
      <point x="430" y="640"/>
      <point x="375" y="701"/>
      <point x="267" y="701" type="curve" smooth="yes"/>
      <point x="170" y="701"/>
      <point x="110" y="637"/>
      <point x="110" y="522" type="curve" smooth="yes"/>
      <point x="110" y="-175" type="line"/>
      <point x="88" y="-187" type="line"/>
      <point x="88" y="519" type="line" smooth="yes"/>
      <point x="88" y="647"/>
      <point x="157" y="721"/>
      <point x="268" y="721" type="curve" smooth="yes"/>
      <point x="387" y="721"/>
      <point x="452" y="650"/>
      <point x="452" y="562" type="curve" smooth="yes"/>
      <point x="452" y="462"/>
      <point x="392" y="414"/>
      <point x="318" y="403" type="curve"/>
      <point x="429" y="396"/>
      <point x="509" y="334"/>
    </contour>
  </outline>
</glyph>
<glyph name="ae" format="1">
  <advance width="892"/>
  <unicode hex="00E6"/>
  <outline>
    <contour>
      <point x="449" y="111" type="curve"/>
      <point x="401" y="37"/>
      <point x="330" y="-11"/>
      <point x="232" y="-11" type="curve" smooth="yes"/>
      <point x="146" y="-11"/>
      <point x="55" y="27"/>
      <point x="55" y="146" type="curve" smooth="yes"/>
      <point x="55" y="261"/>
      <point x="144" y="317"/>
      <point x="248" y="317" type="curve" smooth="yes"/>
      <point x="319" y="317"/>
      <point x="383" y="297"/>
      <point x="421" y="274" type="curve"/>
      <point x="421" y="360" type="line" smooth="yes"/>
      <point x="421" y="477"/>
      <point x="371" y="516"/>
      <point x="266" y="516" type="curve" smooth="yes"/>
      <point x="203" y="516"/>
      <point x="155" y="497"/>
      <point x="112" y="475" type="curve"/>
      <point x="104" y="494" type="line"/>
      <point x="150" y="517"/>
      <point x="200" y="536"/>
      <point x="267" y="536" type="curve" smooth="yes"/>
      <point x="378" y="536"/>
      <point x="438" y="486"/>
      <point x="438" y="393" type="curve" smooth="yes"/>
      <point x="438" y="370" type="line"/>
      <point x="460" y="470"/>
      <point x="535" y="536"/>
      <point x="628" y="536" type="curve" smooth="yes"/>
      <point x="746" y="536"/>
      <point x="832" y="440"/>
      <point x="832" y="270" type="curve" smooth="yes"/>
      <point x="832" y="266"/>
      <point x="832" y="262"/>
      <point x="831" y="259" type="curve"/>
      <point x="442" y="259" type="line"/>
      <point x="442" y="99"/>
      <point x="523" y="8"/>
      <point x="627" y="8" type="curve" smooth="yes"/>
      <point x="701" y="8"/>
      <point x="745" y="25"/>
      <point x="793" y="53" type="curve"/>
      <point x="802" y="37" type="line"/>
      <point x="750" y="7"/>
      <point x="703" y="-11"/>
      <point x="625" y="-11" type="curve" smooth="yes"/>
      <point x="558" y="-11"/>
      <point x="486" y="27"/>
    </contour>
    <contour>
      <point x="810" y="277" type="line"/>
      <point x="808" y="433"/>
      <point x="733" y="517"/>
      <point x="627" y="517" type="curve" smooth="yes"/>
      <point x="526" y="517"/>
      <point x="446" y="433"/>
      <point x="442" y="277" type="curve"/>
    </contour>
    <contour>
      <point x="441" y="130" type="curve"/>
      <point x="428" y="164"/>
      <point x="421" y="205"/>
      <point x="421" y="253" type="curve"/>
      <point x="377" y="278"/>
      <point x="319" y="298"/>
      <point x="247" y="298" type="curve" smooth="yes"/>
      <point x="151" y="298"/>
      <point x="77" y="247"/>
      <point x="77" y="147" type="curve" smooth="yes"/>
      <point x="77" y="42"/>
      <point x="155" y="8"/>
      <point x="235" y="8" type="curve" smooth="yes"/>
      <point x="323" y="8"/>
      <point x="392" y="53"/>
    </contour>
  </outline>
</glyph>
<glyph name="ccedilla" format="1">
  <advance width="489"/>
  <unicode hex="00E7"/>
  <outline>
    <contour>
      <point x="247" y="-10" type="line"/>
      <point x="148" y="2"/>
      <point x="59" y="89"/>
      <point x="59" y="262" type="curve" smooth="yes"/>
      <point x="59" y="446"/>
      <point x="166" y="536"/>
      <point x="273" y="536" type="curve" smooth="yes"/>
      <point x="347" y="536"/>
      <point x="390" y="512"/>
      <point x="427" y="481" type="curve"/>
      <point x="415" y="465" type="line"/>
      <point x="378" y="496"/>
      <point x="340" y="517"/>
      <point x="272" y="517" type="curve" smooth="yes"/>
      <point x="174" y="517"/>
      <point x="81" y="431"/>
      <point x="81" y="264" type="curve" smooth="yes"/>
      <point x="81" y="93"/>
      <point x="171" y="8"/>
      <point x="272" y="8" type="curve" smooth="yes"/>
      <point x="332" y="8"/>
      <point x="381" y="29"/>
      <point x="417" y="62" type="curve"/>
      <point x="429" y="48" type="line"/>
      <point x="391" y="12"/>
      <point x="337" y="-11"/>
      <point x="271" y="-11" type="curve" smooth="yes"/>
      <point x="269" y="-11"/>
      <point x="267" y="-11"/>
      <point x="265" y="-11" type="curve"/>
      <point x="244" y="-55" type="line"/>
      <point x="257" y="-46"/>
      <point x="270" y="-40"/>
      <point x="296" y="-40" type="curve" smooth="yes"/>
      <point x="325" y="-40"/>
      <point x="355" y="-57"/>
      <point x="355" y="-95" type="curve" smooth="yes"/>
      <point x="355" y="-141"/>
      <point x="318" y="-167"/>
      <point x="260" y="-167" type="curve" smooth="yes"/>
      <point x="220" y="-167"/>
      <point x="187" y="-155"/>
      <point x="161" y="-137" type="curve"/>
      <point x="170" y="-123" type="line"/>
      <point x="197" y="-143"/>
      <point x="227" y="-151"/>
      <point x="258" y="-151" type="curve" smooth="yes"/>
      <point x="309" y="-151"/>
      <point x="337" y="-130"/>
      <point x="337" y="-96" type="curve" smooth="yes"/>
      <point x="337" y="-69"/>
      <point x="317" y="-54"/>
      <point x="290" y="-54" type="curve" smooth="yes"/>
      <point x="268" y="-54"/>
      <point x="248" y="-63"/>
      <point x="235" y="-77" type="curve"/>
      <point x="220" y="-71" type="line"/>
    </contour>
  </outline>
</glyph>
<glyph name="eth" format="1">
  <advance width="574"/>
  <unicode hex="00F0"/>
  <outline>
    <contour>
      <point x="515" y="303" type="curve" smooth="yes"/>
      <point x="515" y="98"/>
      <point x="441" y="-11"/>
      <point x="283" y="-11" type="curve" smooth="yes"/>
      <point x="152" y="-11"/>
      <point x="59" y="85"/>
      <point x="59" y="235" type="curve" smooth="yes"/>
      <point x="59" y="384"/>
      <point x="147" y="482"/>
      <point x="278" y="482" type="curve" smooth="yes"/>
      <point x="394" y="482"/>
      <point x="475" y="425"/>
      <point x="495" y="329" type="curve"/>
      <point x="491" y="417"/>
      <point x="464" y="556"/>
      <point x="346" y="637" type="curve"/>
      <point x="302" y="587" type="line"/>
      <point x="287" y="599" type="line"/>
      <point x="329" y="646" type="line"/>
      <point x="288" y="671"/>
      <point x="240" y="687"/>
      <point x="187" y="692" type="curve"/>
      <point x="187" y="711" type="line"/>
      <point x="244" y="706"/>
      <point x="296" y="689"/>
      <point x="341" y="661" type="curve"/>
      <point x="373" y="696" type="line"/>
      <point x="388" y="684" type="line"/>
      <point x="357" y="650" type="line"/>
      <point x="455" y="583"/>
      <point x="515" y="460"/>
    </contour>
    <contour>
      <point x="493" y="260" type="curve"/>
      <point x="485" y="394"/>
      <point x="402" y="463"/>
      <point x="281" y="463" type="curve" smooth="yes"/>
      <point x="156" y="463"/>
      <point x="80" y="372"/>
      <point x="80" y="235" type="curve" smooth="yes"/>
      <point x="80" y="96"/>
      <point x="162" y="8"/>
      <point x="284" y="8" type="curve" smooth="yes"/>
      <point x="418" y="8"/>
      <point x="487" y="97"/>
    </contour>
  </outline>
</glyph>
<glyph name="oslash" format="1">
  <advance width="568"/>
  <unicode hex="00F8"/>
  <outline>
    <contour>
      <point x="154" y="31" type="line"/>
      <point x="97" y="76"/>
      <point x="59" y="154"/>
      <point x="59" y="263" type="curve" smooth="yes"/>
      <point x="59" y="438"/>
      <point x="159" y="536"/>
      <point x="284" y="536" type="curve" smooth="yes"/>
      <point x="327" y="536"/>
      <point x="366" y="525"/>
      <point x="400" y="503" type="curve"/>
      <point x="437" y="575" type="line"/>
      <point x="456" y="575" type="line"/>
      <point x="413" y="493" type="line"/>
      <point x="471" y="448"/>
      <point x="509" y="370"/>
      <point x="509" y="263" type="curve" smooth="yes"/>
      <point x="509" y="86"/>
      <point x="409" y="-11"/>
      <point x="284" y="-11" type="curve" smooth="yes"/>
      <point x="242" y="-11"/>
      <point x="202" y="0"/>
      <point x="168" y="22" type="curve"/>
      <point x="131" y="-50" type="line"/>
      <point x="112" y="-50" type="line"/>
    </contour>
    <contour>
      <point x="164" y="50" type="curve"/>
      <point x="391" y="485" type="line"/>
      <point x="360" y="506"/>
      <point x="323" y="517"/>
      <point x="284" y="517" type="curve" smooth="yes"/>
      <point x="170" y="517"/>
      <point x="81" y="428"/>
      <point x="81" y="263" type="curve" smooth="yes"/>
      <point x="81" y="164"/>
      <point x="113" y="91"/>
    </contour>
    <contour>
      <point x="404" y="475" type="curve"/>
      <point x="177" y="40" type="line"/>
      <point x="208" y="19"/>
      <point x="245" y="8"/>
      <point x="284" y="8" type="curve" smooth="yes"/>
      <point x="398" y="8"/>
      <point x="487" y="98"/>
      <point x="487" y="263" type="curve" smooth="yes"/>
      <point x="487" y="362"/>
      <point x="455" y="434"/>
    </contour>
  </outline>
</glyph>
<glyph name="thorn" format="1">
  <advance width="549"/>
  <unicode hex="00FE"/>
  <outline>
    <contour>
      <point x="490" y="265" type="curve" smooth="yes"/>
      <point x="490" y="73"/>
      <point x="408" y="-11"/>
      <point x="290" y="-11" type="curve" smooth="yes"/>
      <point x="215" y="-11"/>
      <point x="153" y="34"/>
      <point x="110" y="97" type="curve"/>
      <point x="110" y="-175" type="line"/>
      <point x="88" y="-187" type="line"/>
      <point x="88" y="717" type="line"/>
      <point x="110" y="729" type="line"/>
      <point x="110" y="428" type="line"/>
      <point x="153" y="490"/>
      <point x="216" y="536"/>
      <point x="293" y="536" type="curve" smooth="yes"/>
      <point x="410" y="536"/>
      <point x="490" y="456"/>
    </contour>
    <contour>
      <point x="469" y="265" type="curve" smooth="yes"/>
      <point x="469" y="440"/>
      <point x="398" y="517"/>
      <point x="288" y="517" type="curve" smooth="yes"/>
      <point x="215" y="517"/>
      <point x="152" y="471"/>
      <point x="110" y="406" type="curve"/>
      <point x="110" y="120" type="line"/>
      <point x="150" y="56"/>
      <point x="215" y="8"/>
      <point x="289" y="8" type="curve" smooth="yes"/>
      <point x="400" y="8"/>
      <point x="469" y="87"/>
    </contour>
  </outline>
</glyph>
<glyph name="dotlessi" format="1">
  <advance width="208"/>
  <unicode hex="0131"/>
  <outline>
    <contour>
      <point x="115" y="0" type="line"/>
      <point x="93" y="0" type="line"/>
      <point x="93" y="525" type="line"/>
      <point x="115" y="525" type="line"/>
    </contour>
  </outline>
</glyph>
<glyph name="Lslash" format="1">
  <advance width="521"/>
  <unicode hex="0141"/>
  <outline>
    <contour>
      <point x="477" y="0" type="line"/>
      <point x="110" y="0" type="line"/>
      <point x="110" y="273" type="line"/>
      <point x="48" y="220" type="line"/>
      <point x="48" y="246" type="line"/>
      <point x="110" y="298" type="line"/>
      <point x="110" y="700" type="line"/>
      <point x="132" y="700" type="line"/>
      <point x="132" y="315" type="line"/>
      <point x="299" y="458" type="line"/>
      <point x="299" y="432" type="line"/>
      <point x="132" y="290" type="line"/>
      <point x="132" y="20" type="line"/>
      <point x="477" y="20" type="line"/>
    </contour>
  </outline>
</glyph>
<glyph name="lslash" format="1">
  <advance width="225"/>
  <unicode hex="0142"/>
  <outline>
    <contour>
      <point x="176" y="354" type="line"/>
      <point x="123" y="309" type="line"/>
      <point x="123" y="0" type="line"/>
      <point x="102" y="0" type="line"/>
      <point x="102" y="292" type="line"/>
      <point x="49" y="247" type="line"/>
      <point x="49" y="273" type="line"/>
      <point x="102" y="318" type="line"/>
      <point x="102" y="717" type="line"/>
      <point x="123" y="729" type="line"/>
      <point x="123" y="335" type="line"/>
      <point x="176" y="380" type="line"/>
    </contour>
  </outline>
</glyph>
<glyph name="OE" format="1">
  <advance width="1054"/>
  <unicode hex="0152"/>
  <outline>
    <contour>
      <point x="1012" y="0" type="line"/>
      <point x="625" y="0" type="line"/>
      <point x="625" y="229" type="line"/>
      <point x="598" y="79"/>
      <point x="498" y="-11"/>
      <point x="360" y="-11" type="curve" smooth="yes"/>
      <point x="195" y="-11"/>
      <point x="74" y="125"/>
      <point x="74" y="350" type="curve" smooth="yes"/>
      <point x="74" y="575"/>
      <point x="195" y="711"/>
      <point x="360" y="711" type="curve" smooth="yes"/>
      <point x="496" y="711"/>
      <point x="599" y="621"/>
      <point x="625" y="471" type="curve"/>
      <point x="625" y="700" type="line"/>
      <point x="997" y="700" type="line"/>
      <point x="997" y="680" type="line"/>
      <point x="647" y="680" type="line"/>
      <point x="647" y="383" type="line"/>
      <point x="864" y="383" type="line"/>
      <point x="864" y="363" type="line"/>
      <point x="647" y="363" type="line"/>
      <point x="647" y="20" type="line"/>
      <point x="1012" y="20" type="line"/>
    </contour>
    <contour>
      <point x="625" y="350" type="curve" smooth="yes"/>
      <point x="625" y="564"/>
      <point x="511" y="691"/>
      <point x="360" y="691" type="curve" smooth="yes"/>
      <point x="209" y="691"/>
      <point x="96" y="565"/>
      <point x="96" y="350" type="curve" smooth="yes"/>
      <point x="96" y="136"/>
      <point x="209" y="9"/>
      <point x="361" y="9" type="curve" smooth="yes"/>
      <point x="512" y="9"/>
      <point x="625" y="135"/>
    </contour>
  </outline>
</glyph>
<glyph name="oe" format="1">
  <advance width="960"/>
  <unicode hex="0153"/>
  <outline>
    <contour>
      <point x="896" y="270" type="curve" smooth="yes"/>
      <point x="896" y="266"/>
      <point x="896" y="262"/>
      <point x="896" y="259" type="curve"/>
      <point x="505" y="259" type="line"/>
      <point x="507" y="98"/>
      <point x="587" y="8"/>
      <point x="691" y="8" type="curve" smooth="yes"/>
      <point x="764" y="8"/>
      <point x="809" y="25"/>
      <point x="857" y="53" type="curve"/>
      <point x="866" y="37" type="line"/>
      <point x="814" y="7"/>
      <point x="766" y="-11"/>
      <point x="689" y="-11" type="curve" smooth="yes"/>
      <point x="592" y="-11"/>
      <point x="510" y="66"/>
      <point x="494" y="196" type="curve"/>
      <point x="477" y="65"/>
      <point x="391" y="-11"/>
      <point x="282" y="-11" type="curve" smooth="yes"/>
      <point x="159" y="-11"/>
      <point x="59" y="86"/>
      <point x="59" y="263" type="curve" smooth="yes"/>
      <point x="59" y="438"/>
      <point x="160" y="536"/>
      <point x="283" y="536" type="curve" smooth="yes"/>
      <point x="391" y="536"/>
      <point x="478" y="459"/>
      <point x="495" y="330" type="curve"/>
      <point x="511" y="460"/>
      <point x="593" y="536"/>
      <point x="691" y="536" type="curve" smooth="yes"/>
      <point x="808" y="536"/>
      <point x="896" y="440"/>
    </contour>
    <contour>
      <point x="874" y="277" type="line"/>
      <point x="872" y="433"/>
      <point x="795" y="517"/>
      <point x="691" y="517" type="curve" smooth="yes"/>
      <point x="591" y="517"/>
      <point x="509" y="433"/>
      <point x="505" y="277" type="curve"/>
    </contour>
    <contour>
      <point x="485" y="263" type="curve" smooth="yes"/>
      <point x="485" y="428"/>
      <point x="396" y="517"/>
      <point x="283" y="517" type="curve" smooth="yes"/>
      <point x="169" y="517"/>
      <point x="80" y="428"/>
      <point x="80" y="263" type="curve" smooth="yes"/>
      <point x="80" y="98"/>
      <point x="169" y="8"/>
      <point x="283" y="8" type="curve" smooth="yes"/>
      <point x="396" y="8"/>
      <point x="485" y="98"/>
    </contour>
  </outline>
</glyph>
<glyph name="florin" format="1">
  <advance width="353"/>
  <unicode hex="0192"/>
  <outline>
    <contour>
      <point x="303" y="679" type="line"/>
      <point x="289" y="686"/>
      <point x="266" y="691"/>
      <point x="238" y="691" type="curve" smooth="yes"/>
      <point x="192" y="691"/>
      <point x="153" y="668"/>
      <point x="153" y="593" type="curve" smooth="yes"/>
      <point x="153" y="525" type="line"/>
      <point x="289" y="525" type="line"/>
      <point x="289" y="507" type="line"/>
      <point x="153" y="507" type="line"/>
      <point x="153" y="-175" type="line"/>
      <point x="132" y="-187" type="line"/>
      <point x="132" y="507" type="line"/>
      <point x="50" y="507" type="line"/>
      <point x="50" y="525" type="line"/>
      <point x="132" y="525" type="line"/>
      <point x="132" y="593" type="line" smooth="yes"/>
      <point x="132" y="681"/>
      <point x="180" y="711"/>
      <point x="237" y="711" type="curve" smooth="yes"/>
      <point x="269" y="711"/>
      <point x="291" y="705"/>
      <point x="303" y="700" type="curve"/>
    </contour>
  </outline>
</glyph>
<glyph name="circumflex" format="1">
  <advance width="500"/>
  <unicode hex="02C6"/>
  <outline>
    <contour>
      <point x="397" y="595" type="line"/>
      <point x="373" y="595" type="line"/>
      <point x="250" y="717" type="line"/>
      <point x="127" y="595" type="line"/>
      <point x="103" y="595" type="line"/>
      <point x="238" y="732" type="line"/>
      <point x="262" y="732" type="line"/>
    </contour>
  </outline>
</glyph>
<glyph name="caron" format="1">
  <advance width="500"/>
  <unicode hex="02C7"/>
  <outline>
    <contour>
      <point x="103" y="732" type="line"/>
      <point x="127" y="732" type="line"/>
      <point x="250" y="610" type="line"/>
      <point x="373" y="732" type="line"/>
      <point x="397" y="732" type="line"/>
      <point x="262" y="595" type="line"/>
      <point x="238" y="595" type="line"/>
    </contour>
  </outline>
</glyph>
<glyph name="breve" format="1">
  <advance width="500"/>
  <unicode hex="02D8"/>
  <outline>
    <contour>
      <point x="397" y="732" type="line"/>
      <point x="388" y="644"/>
      <point x="334" y="592"/>
      <point x="250" y="592" type="curve" smooth="yes"/>
      <point x="167" y="592"/>
      <point x="112" y="644"/>
      <point x="103" y="732" type="curve"/>
      <point x="121" y="732" type="line"/>
      <point x="130" y="653"/>
      <point x="176" y="610"/>
      <point x="250" y="610" type="curve" smooth="yes"/>
      <point x="323" y="610"/>
      <point x="370" y="653"/>
      <point x="379" y="732" type="curve"/>
    </contour>
  </outline>
</glyph>
<glyph name="dotaccent" format="1">
  <advance width="500"/>
  <unicode hex="02D9"/>
  <outline>
    <contour>
      <point x="250" y="641" type="curve" smooth="yes"/>
      <point x="238" y="641"/>
      <point x="228" y="651"/>
      <point x="228" y="663" type="curve" smooth="yes"/>
      <point x="228" y="675"/>
      <point x="238" y="685"/>
      <point x="250" y="685" type="curve" smooth="yes"/>
      <point x="262" y="685"/>
      <point x="272" y="675"/>
      <point x="272" y="663" type="curve" smooth="yes"/>
      <point x="272" y="651"/>
      <point x="262" y="641"/>
    </contour>
  </outline>
</glyph>
<glyph name="ring" format="1">
  <advance width="500"/>
  <unicode hex="02DA"/>
  <outline>
    <contour>
      <point x="333" y="678" type="curve" smooth="yes"/>
      <point x="333" y="632"/>
      <point x="297" y="596"/>
      <point x="250" y="596" type="curve" smooth="yes"/>
      <point x="203" y="596"/>
      <point x="167" y="632"/>
      <point x="167" y="678" type="curve" smooth="yes"/>
      <point x="167" y="724"/>
      <point x="203" y="761"/>
      <point x="250" y="761" type="curve" smooth="yes"/>
      <point x="297" y="761"/>
      <point x="333" y="724"/>
    </contour>
    <contour>
      <point x="250" y="746" type="curve" smooth="yes"/>
      <point x="212" y="746"/>
      <point x="183" y="716"/>
      <point x="183" y="678" type="curve" smooth="yes"/>
      <point x="183" y="640"/>
      <point x="212" y="611"/>
      <point x="250" y="611" type="curve" smooth="yes"/>
      <point x="288" y="611"/>
      <point x="317" y="640"/>
      <point x="317" y="678" type="curve" smooth="yes"/>
      <point x="317" y="716"/>
      <point x="288" y="746"/>
    </contour>
  </outline>
</glyph>
<glyph name="ogonek" format="1">
  <advance width="500"/>
  <unicode hex="02DB"/>
  <outline>
    <contour>
      <point x="362" y="-164" type="line"/>
      <point x="323" y="-184"/>
      <point x="291" y="-193"/>
      <point x="250" y="-193" type="curve" smooth="yes"/>
      <point x="190" y="-193"/>
      <point x="158" y="-163"/>
      <point x="158" y="-115" type="curve" smooth="yes"/>
      <point x="158" y="-73"/>
      <point x="188" y="-32"/>
      <point x="233" y="0" type="curve"/>
      <point x="259" y="0" type="line"/>
      <point x="208" y="-33"/>
      <point x="176" y="-77"/>
      <point x="176" y="-113" type="curve" smooth="yes"/>
      <point x="176" y="-158"/>
      <point x="205" y="-177"/>
      <point x="250" y="-177" type="curve" smooth="yes"/>
      <point x="287" y="-177"/>
      <point x="320" y="-169"/>
      <point x="356" y="-150" type="curve"/>
    </contour>
  </outline>
</glyph>
<glyph name="tilde" format="1">
  <advance width="500"/>
  <unicode hex="02DC"/>
  <outline>
    <contour>
      <point x="406" y="682" type="line"/>
      <point x="401" y="625"/>
      <point x="369" y="596"/>
      <point x="325" y="596" type="curve" smooth="yes"/>
      <point x="296" y="596"/>
      <point x="274" y="612"/>
      <point x="250" y="629" type="curve" smooth="yes"/>
      <point x="221" y="650"/>
      <point x="202" y="666"/>
      <point x="175" y="666" type="curve" smooth="yes"/>
      <point x="141" y="666"/>
      <point x="119" y="645"/>
      <point x="112" y="598" type="curve"/>
      <point x="94" y="598" type="line"/>
      <point x="99" y="655"/>
      <point x="131" y="684"/>
      <point x="175" y="684" type="curve" smooth="yes"/>
      <point x="204" y="684"/>
      <point x="227" y="668"/>
      <point x="250" y="651" type="curve" smooth="yes"/>
      <point x="279" y="630"/>
      <point x="298" y="614"/>
      <point x="325" y="614" type="curve" smooth="yes"/>
      <point x="359" y="614"/>
      <point x="381" y="636"/>
      <point x="388" y="682" type="curve"/>
    </contour>
  </outline>
</glyph>
<glyph name="hungarumlaut" format="1">
  <advance width="500"/>
  <unicode hex="02DD"/>
  <outline>
    <contour>
      <point x="403" y="732" type="line"/>
      <point x="292" y="595" type="line"/>
      <point x="274" y="595" type="line"/>
      <point x="375" y="732" type="line"/>
    </contour>
    <contour>
      <point x="239" y="732" type="line"/>
      <point x="128" y="595" type="line"/>
      <point x="110" y="595" type="line"/>
      <point x="211" y="732" type="line"/>
    </contour>
  </outline>
</glyph>
<glyph name="endash" format="1">
  <advance width="413"/>
  <unicode hex="2013"/>
  <outline>
    <contour>
      <point x="361" y="353" type="line"/>
      <point x="52" y="353" type="line"/>
      <point x="52" y="374" type="line"/>
      <point x="361" y="374" type="line"/>
    </contour>
  </outline>
</glyph>
<glyph name="emdash" format="1">
  <advance width="565"/>
  <unicode hex="2014"/>
  <outline>
    <contour>
      <point x="513" y="353" type="line"/>
      <point x="52" y="353" type="line"/>
      <point x="52" y="374" type="line"/>
      <point x="513" y="374" type="line"/>
    </contour>
  </outline>
</glyph>
<glyph name="quoteleft" format="1">
  <advance width="193"/>
  <unicode hex="2018"/>
  <unicode hex="02BB"/>
  <outline>
    <contour>
      <point x="119" y="700" type="line"/>
      <point x="99" y="532" type="line"/>
      <point x="71" y="532" type="line"/>
      <point x="103" y="700" type="line"/>
    </contour>
  </outline>
</glyph>
<glyph name="quoteright" format="1">
  <advance width="193"/>
  <unicode hex="2019"/>
  <unicode hex="02BC"/>
  <outline>
    <contour>
      <point x="122" y="700" type="line"/>
      <point x="91" y="532" type="line"/>
      <point x="75" y="532" type="line"/>
      <point x="95" y="700" type="line"/>
    </contour>
  </outline>
</glyph>
<glyph name="quotesinglbase" format="1">
  <advance width="193"/>
  <unicode hex="201A"/>
  <outline>
    <contour>
      <point x="116" y="73" type="line"/>
      <point x="85" y="-94" type="line"/>
      <point x="69" y="-94" type="line"/>
      <point x="88" y="73" type="line"/>
    </contour>
  </outline>
</glyph>
<glyph name="quotedblleft" format="1">
  <advance width="359"/>
  <unicode hex="201C"/>
  <outline>
    <contour>
      <point x="284" y="700" type="line"/>
      <point x="265" y="532" type="line"/>
      <point x="237" y="532" type="line"/>
      <point x="269" y="700" type="line"/>
    </contour>
    <contour>
      <point x="119" y="700" type="line"/>
      <point x="99" y="532" type="line"/>
      <point x="71" y="532" type="line"/>
      <point x="103" y="700" type="line"/>
    </contour>
  </outline>
</glyph>
<glyph name="quotedblright" format="1">
  <advance width="359"/>
  <unicode hex="201D"/>
  <outline>
    <contour>
      <point x="288" y="700" type="line"/>
      <point x="256" y="532" type="line"/>
      <point x="241" y="532" type="line"/>
      <point x="260" y="700" type="line"/>
    </contour>
    <contour>
      <point x="122" y="700" type="line"/>
      <point x="91" y="532" type="line"/>
      <point x="75" y="532" type="line"/>
      <point x="95" y="700" type="line"/>
    </contour>
  </outline>
</glyph>
<glyph name="quotedblbase" format="1">
  <advance width="359"/>
  <unicode hex="201E"/>
  <outline>
    <contour>
      <point x="282" y="73" type="line"/>
      <point x="250" y="-94" type="line"/>
      <point x="234" y="-94" type="line"/>
      <point x="254" y="73" type="line"/>
    </contour>
    <contour>
      <point x="116" y="73" type="line"/>
      <point x="85" y="-94" type="line"/>
      <point x="69" y="-94" type="line"/>
      <point x="88" y="73" type="line"/>
    </contour>
  </outline>
</glyph>
<glyph name="dagger" format="1">
  <advance width="513"/>
  <unicode hex="2020"/>
  <outline>
    <contour>
      <point x="466" y="421" type="line"/>
      <point x="268" y="421" type="line"/>
      <point x="268" y="-100" type="line"/>
      <point x="246" y="-100" type="line"/>
      <point x="246" y="421" type="line"/>
      <point x="47" y="421" type="line"/>
      <point x="47" y="441" type="line"/>
      <point x="246" y="441" type="line"/>
      <point x="246" y="700" type="line"/>
      <point x="268" y="700" type="line"/>
      <point x="268" y="441" type="line"/>
      <point x="466" y="441" type="line"/>
    </contour>
  </outline>
</glyph>
<glyph name="daggerdbl" format="1">
  <advance width="513"/>
  <unicode hex="2021"/>
  <outline>
    <contour>
      <point x="466" y="159" type="line"/>
      <point x="268" y="159" type="line"/>
      <point x="268" y="-100" type="line"/>
      <point x="246" y="-100" type="line"/>
      <point x="246" y="159" type="line"/>
      <point x="47" y="159" type="line"/>
      <point x="47" y="178" type="line"/>
      <point x="246" y="178" type="line"/>
      <point x="246" y="422" type="line"/>
      <point x="47" y="422" type="line"/>
      <point x="47" y="441" type="line"/>
      <point x="246" y="441" type="line"/>
      <point x="246" y="700" type="line"/>
      <point x="268" y="700" type="line"/>
      <point x="268" y="441" type="line"/>
      <point x="466" y="441" type="line"/>
      <point x="466" y="422" type="line"/>
      <point x="268" y="422" type="line"/>
      <point x="268" y="178" type="line"/>
      <point x="466" y="178" type="line"/>
    </contour>
  </outline>
</glyph>
<glyph name="ellipsis" format="1">
  <advance width="570"/>
  <unicode hex="2026"/>
  <outline>
    <contour>
      <point x="496" y="20" type="curve" smooth="yes"/>
      <point x="496" y="7"/>
      <point x="485" y="-3"/>
      <point x="473" y="-3" type="curve" smooth="yes"/>
      <point x="460" y="-3"/>
      <point x="450" y="7"/>
      <point x="450" y="20" type="curve" smooth="yes"/>
      <point x="450" y="33"/>
      <point x="460" y="44"/>
      <point x="473" y="44" type="curve" smooth="yes"/>
      <point x="485" y="44"/>
      <point x="496" y="33"/>
    </contour>
    <contour>
      <point x="308" y="20" type="curve" smooth="yes"/>
      <point x="308" y="7"/>
      <point x="297" y="-3"/>
      <point x="285" y="-3" type="curve" smooth="yes"/>
      <point x="272" y="-3"/>
      <point x="262" y="7"/>
      <point x="262" y="20" type="curve" smooth="yes"/>
      <point x="262" y="33"/>
      <point x="272" y="44"/>
      <point x="285" y="44" type="curve" smooth="yes"/>
      <point x="297" y="44"/>
      <point x="308" y="33"/>
    </contour>
    <contour>
      <point x="120" y="20" type="curve" smooth="yes"/>
      <point x="120" y="7"/>
      <point x="109" y="-3"/>
      <point x="97" y="-3" type="curve" smooth="yes"/>
      <point x="84" y="-3"/>
      <point x="74" y="7"/>
      <point x="74" y="20" type="curve" smooth="yes"/>
      <point x="74" y="33"/>
      <point x="84" y="44"/>
      <point x="97" y="44" type="curve" smooth="yes"/>
      <point x="109" y="44"/>
      <point x="120" y="33"/>
    </contour>
  </outline>
</glyph>
<glyph name="guilsinglleft" format="1">
  <advance width="328"/>
  <unicode hex="2039"/>
  <outline>
    <contour>
      <point x="268" y="0" type="line"/>
      <point x="244" y="0" type="line"/>
      <point x="41" y="261" type="line"/>
      <point x="41" y="263" type="line"/>
      <point x="244" y="525" type="line"/>
      <point x="268" y="525" type="line"/>
      <point x="65" y="262" type="line"/>
    </contour>
  </outline>
</glyph>
<glyph name="guilsinglright" format="1">
  <advance width="328"/>
  <unicode hex="203A"/>
  <outline>
    <contour>
      <point x="287" y="261" type="line"/>
      <point x="85" y="0" type="line"/>
      <point x="60" y="0" type="line"/>
      <point x="263" y="262" type="line"/>
      <point x="60" y="525" type="line"/>
      <point x="85" y="525" type="line"/>
      <point x="287" y="263" type="line"/>
    </contour>
  </outline>
</glyph>
<glyph name="fraction" format="1">
  <advance width="452"/>
  <unicode hex="2044"/>
  <outline>
    <contour>
      <point x="491" y="700" type="line"/>
      <point x="-15" y="0" type="line"/>
      <point x="-39" y="0" type="line"/>
      <point x="467" y="700" type="line"/>
    </contour>
  </outline>
</glyph>
<glyph name="Euro" format="1">
  <advance width="582"/>
  <unicode hex="20AC"/>
  <outline>
    <contour>
      <point x="98" y="280" type="line"/>
      <point x="116" y="112"/>
      <point x="203" y="9"/>
      <point x="340" y="9" type="curve" smooth="yes"/>
      <point x="407" y="9"/>
      <point x="460" y="35"/>
      <point x="504" y="83" type="curve"/>
      <point x="518" y="70" type="line"/>
      <point x="474" y="20"/>
      <point x="415" y="-11"/>
      <point x="340" y="-11" type="curve" smooth="yes"/>
      <point x="175" y="-11"/>
      <point x="73" y="125"/>
      <point x="73" y="350" type="curve" smooth="yes"/>
      <point x="73" y="576"/>
      <point x="188" y="711"/>
      <point x="341" y="711" type="curve" smooth="yes"/>
      <point x="418" y="711"/>
      <point x="471" y="686"/>
      <point x="509" y="639" type="curve"/>
      <point x="492" y="626" type="line"/>
      <point x="455" y="670"/>
      <point x="410" y="691"/>
      <point x="340" y="691" type="curve" smooth="yes"/>
      <point x="215" y="691"/>
      <point x="120" y="592"/>
      <point x="99" y="425" type="curve"/>
      <point x="378" y="425" type="line"/>
      <point x="378" y="405" type="line"/>
      <point x="97" y="405" type="line"/>
      <point x="96" y="387"/>
      <point x="95" y="370"/>
      <point x="95" y="350" type="curve" smooth="yes"/>
      <point x="95" y="333"/>
      <point x="96" y="317"/>
      <point x="97" y="300" type="curve"/>
      <point x="378" y="300" type="line"/>
      <point x="378" y="280" type="line"/>
    </contour>
  </outline>
</glyph>
<glyph name="uni2117" format="1">
  <advance width="836"/>
  <unicode hex="2117"/>
  <outline>
    <contour>
      <point x="779" y="350" type="curve" smooth="yes"/>
      <point x="779" y="139"/>
      <point x="626" y="-11"/>
      <point x="418" y="-11" type="curve" smooth="yes"/>
      <point x="210" y="-11"/>
      <point x="57" y="139"/>
      <point x="57" y="350" type="curve" smooth="yes"/>
      <point x="57" y="561"/>
      <point x="210" y="711"/>
      <point x="418" y="711" type="curve" smooth="yes"/>
      <point x="626" y="711"/>
      <point x="779" y="561"/>
    </contour>
    <contour>
      <point x="760" y="350" type="curve" smooth="yes"/>
      <point x="760" y="550"/>
      <point x="615" y="693"/>
      <point x="418" y="693" type="curve" smooth="yes"/>
      <point x="221" y="693"/>
      <point x="76" y="550"/>
      <point x="76" y="350" type="curve" smooth="yes"/>
      <point x="76" y="150"/>
      <point x="221" y="7"/>
      <point x="418" y="7" type="curve" smooth="yes"/>
      <point x="615" y="7"/>
      <point x="760" y="150"/>
    </contour>
    <contour>
      <point x="573" y="433" type="curve" smooth="yes"/>
      <point x="573" y="350"/>
      <point x="520" y="313"/>
      <point x="430" y="313" type="curve" smooth="yes"/>
      <point x="335" y="313" type="line"/>
      <point x="335" y="137" type="line"/>
      <point x="314" y="137" type="line"/>
      <point x="314" y="550" type="line"/>
      <point x="439" y="550" type="line" smooth="yes"/>
      <point x="519" y="550"/>
      <point x="573" y="518"/>
    </contour>
    <contour>
      <point x="552" y="434" type="curve" smooth="yes"/>
      <point x="552" y="505"/>
      <point x="510" y="532"/>
      <point x="438" y="532" type="curve" smooth="yes"/>
      <point x="335" y="532" type="line"/>
      <point x="335" y="332" type="line"/>
      <point x="430" y="332" type="line" smooth="yes"/>
      <point x="510" y="332"/>
      <point x="552" y="363"/>
    </contour>
  </outline>
</glyph>
<glyph name="trademark" format="1">
  <advance width="806"/>
  <unicode hex="2122"/>
  <outline>
    <contour>
      <point x="310" y="687" type="line"/>
      <point x="177" y="687" type="line"/>
      <point x="177" y="285" type="line"/>
      <point x="162" y="285" type="line"/>
      <point x="162" y="687" type="line"/>
      <point x="30" y="687" type="line"/>
      <point x="30" y="700" type="line"/>
      <point x="310" y="700" type="line"/>
    </contour>
    <contour>
      <point x="746" y="285" type="line"/>
      <point x="732" y="285" type="line"/>
      <point x="732" y="668" type="line"/>
      <point x="571" y="281" type="line"/>
      <point x="568" y="281" type="line"/>
      <point x="406" y="668" type="line"/>
      <point x="406" y="285" type="line"/>
      <point x="392" y="285" type="line"/>
      <point x="392" y="700" type="line"/>
      <point x="408" y="700" type="line"/>
      <point x="570" y="312" type="line"/>
      <point x="730" y="700" type="line"/>
      <point x="746" y="700" type="line"/>
    </contour>
  </outline>
</glyph>
<glyph name="arrowleft" format="1">
  <advance width="600"/>
  <unicode hex="2190"/>
  <outline>
    <contour>
      <point x="535" y="339" type="line"/>
      <point x="90" y="339" type="line"/>
      <point x="189" y="246" type="line"/>
      <point x="190" y="244"/>
      <point x="186" y="240"/>
      <point x="184" y="242" type="curve"/>
      <point x="44" y="349" type="line"/>
      <point x="184" y="456" type="line"/>
      <point x="186" y="457"/>
      <point x="190" y="453"/>
      <point x="189" y="451" type="curve"/>
      <point x="90" y="359" type="line"/>
      <point x="535" y="359" type="line"/>
    </contour>
  </outline>
</glyph>
<glyph name="arrowup" format="1">
  <advance width="366"/>
  <unicode hex="2191"/>
  <outline>
    <contour>
      <point x="290" y="575" type="line"/>
      <point x="292" y="573"/>
      <point x="287" y="569"/>
      <point x="285" y="570" type="curve"/>
      <point x="193" y="669" type="line"/>
      <point x="193" y="0" type="line"/>
      <point x="173" y="0" type="line"/>
      <point x="173" y="669" type="line"/>
      <point x="81" y="570" type="line"/>
      <point x="79" y="569"/>
      <point x="74" y="573"/>
      <point x="76" y="575" type="curve"/>
      <point x="183" y="715" type="line"/>
    </contour>
  </outline>
</glyph>
<glyph name="arrowright" format="1">
  <advance width="600"/>
  <unicode hex="2192"/>
  <outline>
    <contour>
      <point x="556" y="349" type="line"/>
      <point x="416" y="242" type="line"/>
      <point x="414" y="240"/>
      <point x="410" y="244"/>
      <point x="411" y="246" type="curve"/>
      <point x="510" y="339" type="line"/>
      <point x="65" y="339" type="line"/>
      <point x="65" y="359" type="line"/>
      <point x="510" y="359" type="line"/>
      <point x="411" y="451" type="line"/>
      <point x="410" y="453"/>
      <point x="414" y="457"/>
      <point x="416" y="456" type="curve"/>
    </contour>
  </outline>
</glyph>
<glyph name="arrowboth" format="1">
  <advance width="725"/>
  <unicode hex="2194"/>
  <outline>
    <contour>
      <point x="696" y="349" type="line"/>
      <point x="557" y="242" type="line"/>
      <point x="555" y="240"/>
      <point x="551" y="244"/>
      <point x="552" y="246" type="curve"/>
      <point x="651" y="339" type="line"/>
      <point x="74" y="339" type="line"/>
      <point x="173" y="246" type="line"/>
      <point x="174" y="244"/>
      <point x="170" y="240"/>
      <point x="168" y="242" type="curve"/>
      <point x="28" y="349" type="line"/>
      <point x="168" y="456" type="line"/>
      <point x="170" y="457"/>
      <point x="174" y="453"/>
      <point x="173" y="451" type="curve"/>
      <point x="74" y="359" type="line"/>
      <point x="651" y="359" type="line"/>
      <point x="552" y="451" type="line"/>
      <point x="551" y="453"/>
      <point x="555" y="457"/>
      <point x="557" y="456" type="curve"/>
    </contour>
  </outline>
</glyph>
<glyph name="apple" format="1">
  <advance width="714"/>
  <unicode hex="F8FF"/>
  <outline>
    <contour>
      <point x="686" y="349" type="line"/>
      <point x="549" y="241" type="line"/>
      <point x="547" y="239"/>
      <point x="544" y="243"/>
      <point x="545" y="245" type="curve"/>
      <point x="643" y="339" type="line"/>
      <point x="367" y="339" type="line"/>
      <point x="367" y="28" type="line"/>
      <point x="461" y="126" type="line"/>
      <point x="464" y="127"/>
      <point x="467" y="124"/>
      <point x="466" y="122" type="curve"/>
      <point x="358" y="-15" type="line"/>
      <point x="250" y="122" type="line"/>
      <point x="248" y="124"/>
      <point x="252" y="127"/>
      <point x="254" y="126" type="curve"/>
      <point x="348" y="28" type="line"/>
      <point x="348" y="339" type="line"/>
      <point x="71" y="339" type="line"/>
      <point x="170" y="245" type="line"/>
      <point x="171" y="243"/>
      <point x="168" y="239"/>
      <point x="166" y="241" type="curve"/>
      <point x="28" y="349" type="line"/>
      <point x="166" y="457" type="line"/>
      <point x="168" y="458"/>
      <point x="171" y="455"/>
      <point x="170" y="452" type="curve"/>
      <point x="71" y="359" type="line"/>
      <point x="348" y="359" type="line"/>
      <point x="348" y="672" type="line"/>
      <point x="254" y="574" type="line"/>
      <point x="252" y="573"/>
      <point x="248" y="576"/>
      <point x="250" y="578" type="curve"/>
      <point x="358" y="715" type="line"/>
      <point x="466" y="578" type="line"/>
      <point x="467" y="576"/>
      <point x="464" y="573"/>
      <point x="461" y="574" type="curve"/>
      <point x="367" y="672" type="line"/>
      <point x="367" y="359" type="line"/>
      <point x="643" y="359" type="line"/>
      <point x="545" y="452" type="line"/>
      <point x="544" y="455"/>
      <point x="547" y="458"/>
      <point x="549" y="457" type="curve"/>
    </contour>
  </outline>
</glyph>
<glyph name="fi" format="1">
  <advance width="540"/>
  <unicode hex="FB01"/>
  <outline>
    <contour>
      <point x="456" y="687" type="curve" smooth="yes"/>
      <point x="456" y="677"/>
      <point x="447" y="668"/>
      <point x="438" y="668" type="curve" smooth="yes"/>
      <point x="426" y="668"/>
      <point x="418" y="677"/>
      <point x="418" y="687" type="curve" smooth="yes"/>
      <point x="418" y="698"/>
      <point x="426" y="706"/>
      <point x="438" y="706" type="curve" smooth="yes"/>
      <point x="447" y="706"/>
      <point x="456" y="698"/>
    </contour>
    <contour>
      <point x="298" y="693" type="line"/>
      <point x="287" y="698"/>
      <point x="262" y="705"/>
      <point x="234" y="705" type="curve" smooth="yes"/>
      <point x="189" y="705"/>
      <point x="152" y="683"/>
      <point x="152" y="608" type="curve" smooth="yes"/>
      <point x="152" y="525" type="line"/>
      <point x="286" y="525" type="line"/>
      <point x="286" y="506" type="line"/>
      <point x="152" y="506" type="line"/>
      <point x="152" y="0" type="line"/>
      <point x="130" y="0" type="line"/>
      <point x="130" y="506" type="line"/>
      <point x="48" y="506" type="line"/>
      <point x="48" y="525" type="line"/>
      <point x="130" y="525" type="line"/>
      <point x="130" y="606" type="line" smooth="yes"/>
      <point x="130" y="695"/>
      <point x="176" y="724"/>
      <point x="232" y="724" type="curve" smooth="yes"/>
      <point x="265" y="724"/>
      <point x="285" y="718"/>
      <point x="298" y="713" type="curve"/>
    </contour>
    <contour>
      <point x="447" y="0" type="line"/>
      <point x="425" y="0" type="line"/>
      <point x="425" y="525" type="line"/>
      <point x="447" y="525" type="line"/>
    </contour>
  </outline>
</glyph>
<glyph name="fl" format="1">
  <advance width="540"/>
  <unicode hex="FB02"/>
  <outline>
    <contour>
      <point x="447" y="0" type="line"/>
      <point x="425" y="0" type="line"/>
      <point x="425" y="717" type="line"/>
      <point x="447" y="729" type="line"/>
    </contour>
    <contour>
      <point x="298" y="693" type="line"/>
      <point x="287" y="698"/>
      <point x="262" y="705"/>
      <point x="234" y="705" type="curve" smooth="yes"/>
      <point x="189" y="705"/>
      <point x="152" y="683"/>
      <point x="152" y="608" type="curve" smooth="yes"/>
      <point x="152" y="525" type="line"/>
      <point x="286" y="525" type="line"/>
      <point x="286" y="506" type="line"/>
      <point x="152" y="506" type="line"/>
      <point x="152" y="0" type="line"/>
      <point x="130" y="0" type="line"/>
      <point x="130" y="506" type="line"/>
      <point x="48" y="506" type="line"/>
      <point x="48" y="525" type="line"/>
      <point x="130" y="525" type="line"/>
      <point x="130" y="606" type="line" smooth="yes"/>
      <point x="130" y="695"/>
      <point x="176" y="724"/>
      <point x="232" y="724" type="curve" smooth="yes"/>
      <point x="265" y="724"/>
      <point x="285" y="718"/>
      <point x="298" y="713" type="curve"/>
    </contour>
  </outline>
</glyph>
<glyph name="a.salt" format="1">
  <advance width="549"/>
  <outline>
    <contour>
      <point x="460" y="0" type="line"/>
      <point x="438" y="0" type="line"/>
      <point x="438" y="91" type="line"/>
      <point x="395" y="33"/>
      <point x="334" y="-11"/>
      <point x="256" y="-11" type="curve" smooth="yes"/>
      <point x="139" y="-11"/>
      <point x="58" y="69"/>
      <point x="58" y="260" type="curve" smooth="yes"/>
      <point x="58" y="452"/>
      <point x="140" y="536"/>
      <point x="258" y="536" type="curve" smooth="yes"/>
      <point x="333" y="536"/>
      <point x="395" y="494"/>
      <point x="438" y="436" type="curve"/>
      <point x="438" y="525" type="line"/>
      <point x="460" y="525" type="line"/>
    </contour>
    <contour>
      <point x="438" y="119" type="curve"/>
      <point x="438" y="405" type="line"/>
      <point x="398" y="469"/>
      <point x="332" y="517"/>
      <point x="260" y="517" type="curve" smooth="yes"/>
      <point x="148" y="517"/>
      <point x="80" y="438"/>
      <point x="80" y="260" type="curve" smooth="yes"/>
      <point x="80" y="85"/>
      <point x="150" y="8"/>
      <point x="260" y="8" type="curve" smooth="yes"/>
      <point x="331" y="8"/>
      <point x="396" y="54"/>
    </contour>
  </outline>
</glyph>
<glyph name="bullet" format="1">
  <advance width="283"/>
  <outline>
    <contour>
      <point x="196" y="366" type="curve" smooth="yes"/>
      <point x="196" y="336"/>
      <point x="172" y="312"/>
      <point x="142" y="312" type="curve" smooth="yes"/>
      <point x="111" y="312"/>
      <point x="88" y="336"/>
      <point x="88" y="366" type="curve" smooth="yes"/>
      <point x="88" y="396"/>
      <point x="111" y="421"/>
      <point x="142" y="421" type="curve" smooth="yes"/>
      <point x="172" y="421"/>
      <point x="196" y="396"/>
    </contour>
  </outline>
</glyph>
<glyph name="macron" format="1">
  <advance width="500"/>
  <outline>
    <contour>
      <point x="386" y="636" type="line"/>
      <point x="114" y="636" type="line"/>
      <point x="114" y="655" type="line"/>
      <point x="386" y="655" type="line"/>
    </contour>
  </outline>
</glyph>
<glyph name="registered" format="1">
  <advance width="836"/>
  <outline>
    <contour>
      <point x="779" y="350" type="curve" smooth="yes"/>
      <point x="779" y="139"/>
      <point x="626" y="-11"/>
      <point x="418" y="-11" type="curve" smooth="yes"/>
      <point x="210" y="-11"/>
      <point x="57" y="139"/>
      <point x="57" y="350" type="curve" smooth="yes"/>
      <point x="57" y="561"/>
      <point x="210" y="711"/>
      <point x="418" y="711" type="curve" smooth="yes"/>
      <point x="626" y="711"/>
      <point x="779" y="561"/>
    </contour>
    <contour>
      <point x="760" y="350" type="curve" smooth="yes"/>
      <point x="760" y="550"/>
      <point x="615" y="693"/>
      <point x="418" y="693" type="curve" smooth="yes"/>
      <point x="221" y="693"/>
      <point x="76" y="550"/>
      <point x="76" y="350" type="curve" smooth="yes"/>
      <point x="76" y="150"/>
      <point x="221" y="7"/>
      <point x="418" y="7" type="curve" smooth="yes"/>
      <point x="615" y="7"/>
      <point x="760" y="150"/>
    </contour>
    <contour>
      <point x="562" y="452" type="curve" smooth="yes"/>
      <point x="562" y="380"/>
      <point x="525" y="348"/>
      <point x="462" y="337" type="curve"/>
      <point x="558" y="149" type="line"/>
      <point x="534" y="149" type="line"/>
      <point x="438" y="335" type="line"/>
      <point x="431" y="335"/>
      <point x="322" y="335"/>
      <point x="322" y="335" type="curve"/>
      <point x="322" y="149" type="line"/>
      <point x="301" y="149" type="line"/>
      <point x="301" y="562" type="line"/>
      <point x="426" y="562" type="line" smooth="yes"/>
      <point x="506" y="562"/>
      <point x="562" y="534"/>
    </contour>
    <contour>
      <point x="542" y="452" type="curve" smooth="yes"/>
      <point x="542" y="521"/>
      <point x="496" y="543"/>
      <point x="425" y="543" type="curve" smooth="yes"/>
      <point x="322" y="543" type="line"/>
      <point x="322" y="355" type="line"/>
      <point x="425" y="355" type="line" smooth="yes"/>
      <point x="505" y="355"/>
      <point x="542" y="383"/>
    </contour>
  </outline>
</glyph>
